<svg width="21" height="21" viewBox="0 0 21 21" fill="none" xmlns="http://www.w3.org/2000/svg">
<path d="M6.94703 2.14722C6.70097 2.39335 6.56274 2.72713 6.56274 3.07516C6.56274 3.42319 6.70097 3.75697 6.94703 4.0031L13.4439 10.5L6.94703 16.9968C6.70794 17.2444 6.57565 17.5759 6.57864 17.9201C6.58163 18.2642 6.71967 18.5934 6.96301 18.8367C7.20636 19.0801 7.53555 19.2181 7.87969 19.2211C8.22382 19.2241 8.55536 19.0918 8.8029 18.8527L16.2277 11.4279C16.4738 11.1818 16.612 10.848 16.612 10.5C16.612 10.1519 16.4738 9.81816 16.2277 9.57204L8.8029 2.14722C8.55677 1.90117 8.22299 1.76294 7.87496 1.76294C7.52694 1.76294 7.19316 1.90117 6.94703 2.14722Z" fill="currentColor"/>
</svg>
