<svg width="56" height="56" viewBox="0 0 56 56" fill="none" xmlns="http://www.w3.org/2000/svg">
<path d="M5.72592 18.5255C6.38227 17.8693 7.27235 17.5007 8.20042 17.5007C9.1285 17.5007 10.0186 17.8693 10.6749 18.5255L27.9999 35.8505L45.3249 18.5255C45.985 17.8879 46.8691 17.5352 47.7868 17.5431C48.7045 17.5511 49.5824 17.9192 50.2313 18.5681C50.8802 19.217 51.2483 20.0949 51.2563 21.0126C51.2643 21.9303 50.9115 22.8144 50.2739 23.4745L30.4744 43.274C29.8181 43.9301 28.928 44.2987 27.9999 44.2987C27.0718 44.2987 26.1818 43.9301 25.5254 43.274L5.72592 23.4745C5.06978 22.8181 4.70117 21.9281 4.70117 21C4.70117 20.0719 5.06978 19.1818 5.72592 18.5255Z" fill="currentColor"/>
</svg>
