<svg width="100" height="100" viewBox="0 0 100 100" fill="none" xmlns="http://www.w3.org/2000/svg">
<path d="M44.6484 2.21094C12.6093 2.21094 12.8671 31.8359 12.8671 32.3047C12.8671 51.4922 14.3359 78.5938 22.0156 89.2578C25.0624 93.4844 30.9453 93.7188 30.9453 93.7188L44.2031 93.6953L57.4609 93.7188C57.4609 93.7188 63.3515 93.4844 66.3906 89.2578C74.0703 78.5938 75.539 51.4922 75.539 32.3047C75.5312 31.8281 76.6874 2.21094 44.6484 2.21094Z" fill="#AB872F"/>
<path d="M44.6484 2.21094C12.6093 2.21094 12.8671 31.8359 12.8671 32.3047C12.8671 51.4922 14.3359 78.5938 22.0156 89.2578C25.0624 93.4844 30.9453 93.7188 30.9453 93.7188L44.2031 93.6953L57.4609 93.7188C57.4609 93.7188 63.3515 93.4844 66.3906 89.2578C74.0703 78.5938 75.539 51.4922 75.539 32.3047C75.5312 31.8281 76.6874 2.21094 44.6484 2.21094Z" fill="url(#paint0_radial_41_434)"/>
<path d="M43.9453 74.75H43.8438C23.9297 74.7734 3.21875 80.4375 3.21875 94.3281V96.8125H84.4688V94.3281C84.4609 81.2344 63.9453 74.75 43.9453 74.75Z" fill="url(#paint1_linear_41_434)"/>
<path d="M50.6953 70.375H36.5078V78.1719C36.5078 81.6953 39.3984 84.5547 42.9609 84.5547H44.25C47.8125 84.5547 50.7031 81.6953 50.7031 78.1719V70.375H50.6953Z" fill="#C48E6A"/>
<path d="M55.8907 74.3437C57.0235 76.0468 57.1719 79.8436 53.8516 83.0546C51.9063 84.9296 48.586 85.1874 46.0157 85.1171C45.4922 85.1015 44.8907 84.9921 44.6407 84.4843C44.3594 83.914 44.7266 83.1718 45.2344 82.8437C45.7422 82.5155 46.3438 82.4452 46.9063 82.2577C48.086 81.8593 49.9532 79.6718 50.3907 76.4296C50.6719 74.3437 50.4922 73.3905 50.5391 72.7265C50.5704 72.203 55.0313 73.0546 55.8907 74.3437Z" fill="url(#paint2_linear_41_434)"/>
<path d="M32.3047 83.2969C36.3281 86.2656 41.3515 87.3359 46.1718 86.1094C46.8359 85.9375 47.625 85.5781 47.664 84.8906C47.7109 83.9688 46.4531 83.0156 45.5547 82.8828C43.25 82.5391 40.6093 81.3672 39.125 79.5625C37.8125 77.9609 37.2265 76.7422 37.2734 73.8047C37.289 72.6563 32.0468 73.6641 30.7109 74.3594C28.6953 75.3984 27.6328 79.8438 32.3047 83.2969Z" fill="url(#paint3_linear_41_434)"/>
<path d="M44.4453 88.672C44.5937 92.1407 46.3984 93.2736 45.3359 96.0548C47.0781 94.9454 48.2812 93.0704 48.7812 91.0626C49.2812 89.0548 49.1015 86.922 48.4843 84.9689C48.3125 84.4142 48.0859 83.8439 47.6484 83.4611C45.5078 81.5861 44.3906 87.3673 44.4453 88.672Z" fill="url(#paint4_linear_41_434)"/>
<path d="M51.5 89.0937C54.9453 90.5781 56.7578 89.3984 59.0078 92.9844C59.1796 90.4531 58.2031 87.9062 56.5781 85.9766C54.9531 84.0469 52.7031 82.6953 50.3125 81.9219C49.625 81.7031 48.8984 81.5234 48.1953 81.6875C44.7578 82.4922 48.3984 87.7578 51.5 89.0937Z" fill="url(#paint5_linear_41_434)"/>
<path d="M46.9504 86.4659C49.1885 85.9964 50.7623 84.4691 50.4655 83.0544C50.1688 81.6398 48.1139 80.8736 45.8758 81.343C43.6377 81.8125 42.0639 83.3399 42.3607 84.7546C42.6574 86.1692 44.7123 86.9354 46.9504 86.4659Z" fill="#2E4A3D"/>
<path d="M43.8437 12.5312C30.4062 12.5312 17.9609 22.5234 17.9609 43.7109C17.9609 60.7344 28.5 70.7969 37.6719 74.0469C39.8594 74.8203 41.9687 75.2109 43.8437 75.2109C45.7031 75.2109 47.8047 74.8281 49.9766 74.0625C59.1641 70.8281 69.7266 60.7578 69.7266 43.7187C69.7266 22.5234 57.2812 12.5312 43.8437 12.5312Z" fill="#E0BB95"/>
<path d="M47.0078 53.1641C46.9297 53.1328 46.8438 53.1094 46.7578 53.1016H41.2969C41.2109 53.1094 41.1328 53.1328 41.0469 53.1641C40.5547 53.3672 40.2813 53.875 40.5156 54.4219C40.75 54.9688 41.8359 56.5 44.0234 56.5C46.2109 56.5 47.2969 54.9688 47.5313 54.4219C47.7734 53.8828 47.5078 53.3672 47.0078 53.1641Z" fill="#C48E6A"/>
<path d="M31.3437 49.9297C33.445 49.9297 35.1484 48.1668 35.1484 45.9922C35.1484 43.8176 33.445 42.0547 31.3437 42.0547C29.2425 42.0547 27.5391 43.8176 27.5391 45.9922C27.5391 48.1668 29.2425 49.9297 31.3437 49.9297Z" fill="#547C8A"/>
<path d="M56.7266 49.9297C58.8278 49.9297 60.5313 48.1668 60.5313 45.9922C60.5313 43.8176 58.8278 42.0547 56.7266 42.0547C54.6253 42.0547 52.9219 43.8176 52.9219 45.9922C52.9219 48.1668 54.6253 49.9297 56.7266 49.9297Z" fill="#547C8A"/>
<path d="M36.9922 38.9219C36.2657 37.9609 34.5938 36.5703 31.3438 36.5703C28.0938 36.5703 26.4141 37.9687 25.6954 38.9219C25.3751 39.3437 25.4532 39.8359 25.6797 40.1328C25.8829 40.4062 26.4922 40.6641 27.1641 40.4375C27.836 40.2109 29.1485 39.5313 31.3438 39.5156C33.5391 39.5313 34.8516 40.2109 35.5235 40.4375C36.1954 40.6641 36.8047 40.4141 37.0079 40.1328C37.2266 39.8359 37.3126 39.3437 36.9922 38.9219ZM62.3829 38.9219C61.6563 37.9609 59.9844 36.5703 56.7344 36.5703C53.4844 36.5703 51.8047 37.9687 51.086 38.9219C50.7657 39.3437 50.8438 39.8359 51.0704 40.1328C51.2735 40.4062 51.8829 40.6641 52.5547 40.4375C53.2266 40.2109 54.5391 39.5313 56.7344 39.5156C58.9297 39.5313 60.2422 40.2109 60.9141 40.4375C61.586 40.6641 62.1954 40.4141 62.3985 40.1328C62.6094 39.8359 62.6954 39.3437 62.3829 38.9219Z" fill="#AB872F"/>
<path d="M50.3359 59.4844C47.875 60.9453 39.8203 60.9453 37.3594 59.4844C35.9453 58.6484 34.5078 59.9297 35.0937 61.2109C35.6719 62.4687 40.0703 65.3984 43.8672 65.3984C47.6641 65.3984 52.0078 62.4687 52.5859 61.2109C53.1719 59.9297 51.75 58.6406 50.3359 59.4844Z" fill="#6D4C41"/>
<path d="M85.4141 52.1875L82.6172 62.0469L83.4219 62.2266C84.2812 62.4219 85.0547 62.7656 85.8047 63.0937C86.0781 63.2109 86.3437 63.3281 86.6016 63.4375L87.3906 63.7578L90.4844 53.6875L85.4141 52.1875Z" fill="#A7A9AC"/>
<path d="M87.1953 61.9922C86.9453 61.8906 86.6953 61.7813 86.4375 61.6641C85.6562 61.3203 84.7734 60.9297 83.7656 60.7031L83.0391 60.5391L72.7812 96.7344H77.2578L87.8516 62.2578L87.1953 61.9922Z" fill="#603913"/>
<path d="M82.4532 69.6094C80.0548 69.6094 77.4297 70.1328 74.6329 71.2812C68.4844 73.8203 64.461 79.2031 61.8516 84.9766C60.5235 87.9297 59.8594 90.8281 59.5626 93.9297C59.4688 94.8828 59.4532 95.8203 59.5391 96.8203H93.1641C101.266 83.75 94.9454 69.6094 82.4532 69.6094Z" fill="url(#paint6_linear_41_434)"/>
<path d="M77.3047 77.3593C77.039 75.9921 75.8593 74.7733 74.4375 74.6796C72.8125 74.5702 71.9765 75.9765 71.5703 77.3436C71.164 78.7108 71.1406 80.2811 72.0781 81.4452C73.1093 82.7265 74.9843 82.6718 75.9922 81.414C76.3593 80.9608 76.6328 80.3827 76.8047 79.7733C77.2968 79.1015 77.4765 78.2186 77.3047 77.3593Z" fill="#00AEEF"/>
<path d="M86.1875 73.3828C84.8359 72.5078 82.8047 73.3125 81.6172 74.1406C80.2812 75.0625 79.3047 76.8593 80.0391 78.4687C80.7656 80.0468 82.7031 80.5156 84.2266 79.8984C85.5625 79.3515 87.0781 77.8906 87.0391 76.3515C87.4219 75.2734 87.3125 74.1015 86.1875 73.3828Z" fill="#00C853"/>
<path d="M90.2187 80.6407C88.9062 80.5704 87.5078 81.1876 86.5 82.0001C85.3984 82.8829 84.625 84.2188 85.3359 85.6017C85.9922 86.8595 87.5156 87.3048 88.8359 87.1563C90.0781 87.0235 91.2734 86.3048 91.9609 85.2579C92.2109 84.8829 92.3828 84.4376 92.4218 83.9923C92.5156 83.7501 92.5937 83.4923 92.625 83.211C92.8125 81.7267 91.6093 80.7188 90.2187 80.6407Z" fill="#FFF200"/>
<path d="M87.4063 91.0468C86.7735 90.0702 85.5469 89.7108 84.4532 89.4999C83.1953 89.2577 81.7266 89.3749 80.7422 90.3046C79.586 91.3905 79.8125 93.1014 81.1016 93.953C81.3672 94.1249 81.6797 94.2733 82.0157 94.3983C83.1719 95.2733 84.6719 95.0155 85.9375 94.5468C86.9141 94.1796 87.7188 93.3202 87.7657 92.3202C87.7657 92.3046 87.7735 92.2968 87.7735 92.2811C87.836 91.7499 87.6797 91.3358 87.4063 91.0468Z" fill="#EF4136"/>
<path d="M93.3594 53.2892C93.2422 53.7189 93.0547 54.1329 92.7891 54.6017C92.6641 54.8204 92.5235 55.0314 92.375 55.2267C91.2891 56.6642 89.6328 57.5001 87.9532 57.5001C87.4219 57.5001 86.8985 57.422 86.3828 57.2501C84.5703 56.6485 83.336 55.297 82.9532 53.5392C82.8825 53.2444 82.8407 52.9435 82.8282 52.6407C82.7735 51.7423 82.9766 50.7814 83.4375 49.6954C83.8438 48.7423 84.4063 47.9064 84.9454 47.0939C85.3516 46.4767 85.7344 45.8907 86.0625 45.2735C86.3125 44.7735 87.2188 42.6564 87.5782 41.4767C87.6403 41.2712 87.7577 41.0868 87.9175 40.9435C88.0773 40.8003 88.2734 40.7036 88.4844 40.6642C88.6954 40.621 88.9142 40.6368 89.1168 40.7098C89.3194 40.7829 89.498 40.9104 89.6329 41.0782L89.6641 41.1095C91.6563 43.5704 94.9922 47.672 93.3594 53.2892Z" fill="#00C853"/>
<path d="M92.375 55.2266C91.2891 56.6641 89.6328 57.5 87.9531 57.5C87.4219 57.5 86.8984 57.4219 86.3828 57.25C84.5703 56.6485 83.3359 55.2969 82.9531 53.5391C86.2422 55.6641 86.6797 49.3516 90.1641 49.3985C93.1875 49.4375 90.1875 54.5313 92.375 55.2266Z" fill="#D1D3D4"/>
<path d="M44.6484 2.21094C12.6093 2.21094 12.8671 31.8359 12.8671 32.3047C12.8671 38.3672 13.0156 45.2187 13.4531 52.0859L18.7031 52.0703C18.6562 49.7891 20.2578 35.6875 25.0156 34.6172C42.4843 30.6875 52.3671 21.4219 52.3671 21.4219C54.9374 27.0312 62.9765 32.5078 65.8593 34.5937C68.2265 36.3047 68.9531 49.0859 68.9062 52.0781H74.9296C74.9296 52.0391 74.9453 52 74.9453 51.9531C75.3828 45.1172 75.5234 38.3125 75.5234 32.2891C75.5312 31.8281 76.6874 2.21094 44.6484 2.21094Z" fill="#AB872F"/>
<path d="M44.6484 2.21094C12.6093 2.21094 12.8671 31.8359 12.8671 32.3047C12.8671 38.3672 13.0156 45.2187 13.4531 52.0859L18.7031 52.0703C18.6562 49.7891 20.2578 35.6875 25.0156 34.6172C42.4843 30.6875 52.3671 21.4219 52.3671 21.4219C54.9374 27.0312 62.9765 32.5078 65.8593 34.5937C68.2265 36.3047 68.9531 49.0859 68.9062 52.0781H74.9296C74.9296 52.0391 74.9453 52 74.9453 51.9531C75.3828 45.1172 75.5234 38.3125 75.5234 32.2891C75.5312 31.8281 76.6874 2.21094 44.6484 2.21094Z" fill="url(#paint7_radial_41_434)"/>
<defs>
<radialGradient id="paint0_radial_41_434" cx="0" cy="0" r="1" gradientUnits="userSpaceOnUse" gradientTransform="translate(44.2023 45.6168) scale(37.1344 44.1936)">
<stop offset="0.794" stop-color="#BFA055" stop-opacity="0"/>
<stop offset="1" stop-color="#BFA055"/>
</radialGradient>
<linearGradient id="paint1_linear_41_434" x1="3.21484" y1="85.7805" x2="84.4648" y2="85.7805" gradientUnits="userSpaceOnUse">
<stop offset="0.001" stop-color="#E3E3E3"/>
<stop offset="1" stop-color="#C9C9C9"/>
</linearGradient>
<linearGradient id="paint2_linear_41_434" x1="52.818" y1="71.5835" x2="50.0641" y2="83.0554" gradientUnits="userSpaceOnUse">
<stop stop-color="#A8BDA3"/>
<stop offset="0.362" stop-color="#A8BDA3"/>
<stop offset="1" stop-color="#2E4A3D"/>
</linearGradient>
<linearGradient id="paint3_linear_41_434" x1="30.0242" y1="75.2383" x2="46.1773" y2="86.1469" gradientUnits="userSpaceOnUse">
<stop offset="0.001" stop-color="#A8BDA3"/>
<stop offset="1" stop-color="#2E4A3D"/>
</linearGradient>
<linearGradient id="paint4_linear_41_434" x1="46.7803" y1="86.2589" x2="46.8682" y2="95.6443" gradientUnits="userSpaceOnUse">
<stop stop-color="#2E4A3D"/>
<stop offset="1" stop-color="#A8BDA3"/>
</linearGradient>
<linearGradient id="paint5_linear_41_434" x1="49.0937" y1="83.9687" x2="56.339" y2="88.9031" gradientUnits="userSpaceOnUse">
<stop stop-color="#2E4A3D"/>
<stop offset="1" stop-color="#A8BDA3"/>
</linearGradient>
<linearGradient id="paint6_linear_41_434" x1="78.3907" y1="69.525" x2="77.9547" y2="105.063" gradientUnits="userSpaceOnUse">
<stop offset="0.002" stop-color="#FFDBB5"/>
<stop offset="1" stop-color="#A97C50"/>
</linearGradient>
<radialGradient id="paint7_radial_41_434" cx="0" cy="0" r="1" gradientUnits="userSpaceOnUse" gradientTransform="translate(44.4632 48.7647) scale(38.8969 47.2014)">
<stop offset="0.794" stop-color="#BFA055" stop-opacity="0"/>
<stop offset="1" stop-color="#BFA055"/>
</radialGradient>
</defs>
</svg>
