<svg width="100" height="100" viewBox="0 0 100 100" fill="none" xmlns="http://www.w3.org/2000/svg">
<path d="M93.7422 68.75H6.24219C4.51562 68.75 3.11719 67.3516 3.11719 65.625V9.375C3.11719 7.64844 4.51562 6.25 6.24219 6.25H93.7422C95.4688 6.25 96.8672 7.64844 96.8672 9.375V65.625C96.8672 67.3516 95.4688 68.75 93.7422 68.75Z" fill="url(#paint0_linear_26_189)"/>
<path opacity="0.3" d="M93.7422 68.75H6.24219C4.51562 68.75 3.11719 67.3516 3.11719 65.625V9.375C3.11719 7.64844 4.51562 6.25 6.24219 6.25H93.7422C95.4688 6.25 96.8672 7.64844 96.8672 9.375V65.625C96.8672 67.3516 95.4688 68.75 93.7422 68.75Z" fill="url(#paint1_linear_26_189)"/>
<path opacity="0.3" d="M93.7578 68.75H6.25781C4.53125 68.75 3.13281 67.3516 3.13281 65.625V9.375C3.13281 7.64844 4.53125 6.25 6.25781 6.25H93.7578C95.4844 6.25 96.8828 7.64844 96.8828 9.375V65.625C96.8828 67.3516 95.4766 68.75 93.7578 68.75Z" fill="url(#paint2_linear_26_189)"/>
<path d="M9.36719 12.5H28.1172V15.625H9.36719V12.5ZM67.1797 12.5H79.6797V15.625H67.1797V12.5ZM84.3672 12.5H90.6172V15.625H84.3672V12.5ZM15.6172 21.875H21.8672V25H15.6172V21.875ZM9.36719 31.25H21.8672V34.375H9.36719V31.25ZM9.36719 40.625H15.6172V43.75H9.36719V40.625ZM76.5547 40.625H85.9297V43.75H76.5547V40.625ZM81.2422 31.25H90.6172V34.375H81.2422V31.25ZM9.36719 50H21.8672V53.125H9.36719V50ZM74.9922 50H90.6172V53.125H74.9922V50ZM78.1172 21.875H87.4922V25H78.1172V21.875Z" fill="#76FF03"/>
<path d="M5.961 96.8594H15.9844C16.8594 96.7891 17.5548 95.9375 17.5548 94.8906V94.3828C17.5548 91.5859 16.2969 89.1406 14.4141 87.7812C14.4141 87.8984 14.4219 88.0156 14.4219 88.1328C14.4219 91.3359 12.8751 93.9297 10.9766 93.9297C9.07819 93.9297 7.53132 91.3359 7.53132 88.1328C7.53132 88.0156 7.53913 87.8984 7.53913 87.7812C5.65631 89.1484 4.3985 91.5859 4.3985 94.3828V94.8906C4.39069 95.9453 5.086 96.7891 5.961 96.8594Z" fill="url(#paint3_linear_26_189)"/>
<path d="M10.9689 93.9375C18.0001 93.9375 14.4142 91.3438 14.4142 88.1406C14.4142 88.0234 14.4064 87.9063 14.4064 87.7891C13.4064 87.0625 12.2267 86.6328 10.9689 86.6328C9.71105 86.6328 8.53136 87.0625 7.53136 87.7891C7.52355 87.9063 7.52355 88.0234 7.52355 88.1406C7.51574 91.3438 3.90636 93.9375 10.9689 93.9375Z" fill="#7600B3"/>
<path d="M21.8593 83.4297C21.7734 81.211 20.1172 76.6328 17.9531 76.25C17.8891 76.2413 17.8277 76.2194 17.7725 76.1858C17.7174 76.1522 17.6698 76.1076 17.6328 76.0547C17.289 75.5313 16.1875 74.125 14.1718 75.2344C13.4218 75.6485 13.1562 76.0157 13.2812 76.5469C13.1875 76.6563 13.0156 76.7891 12.7656 76.6875C11.9531 75.7813 10.9531 75.5938 9.78903 76.5C8.46872 77.5313 8.46872 78.2657 8.70309 78.9922L8.69528 79C8.69528 79 8.64059 79.5078 8.25778 79.4688C7.85934 79.125 7.38278 79.125 6.62497 79.6719C4.59372 81.1407 5.42965 82.5313 5.7734 83.3516C5.72653 83.4297 5.6484 83.4844 5.5234 83.4766C5.25778 83.336 4.92184 83.336 4.46872 83.5938C3.39059 84.211 3.54684 86.2422 3.85153 86.9063C4.18747 87.6328 6.03903 90.1797 6.67184 90.8985C6.82028 91.0625 6.99997 91.1797 7.19528 91.2578L7.13278 91.2344C7.68747 91.5782 8.65622 91.9922 9.60153 91.4063C9.60153 91.4063 10.2031 90.9688 10.2578 90.5078C11.2812 91.0782 12.6953 90.0157 12.6953 90.0157C13.3593 89.5078 13.5312 88.9375 13.5078 88.4453C13.8437 88.6485 14.2109 88.7266 14.5625 88.7344C15.625 88.7657 16.6015 88.1407 16.6015 88.1407C18.125 87.2735 18.4297 86.3672 18.4218 85.7657C19.2109 86.2578 20.1875 85.8907 20.1875 85.8907C21.914 85.1094 21.8593 83.4297 21.8593 83.4297Z" fill="url(#paint4_linear_26_189)"/>
<path d="M84.3358 96.8594H94.3671C94.3671 96.8594 94.8046 89.211 82.5233 88.8438C70.2421 88.4844 84.3358 96.8594 84.3358 96.8594Z" fill="url(#paint5_linear_26_189)"/>
<path d="M77.7031 87.2188C77.789 85 79.4453 80.4219 81.6093 80.0391C81.7421 80.0157 81.8593 79.9532 81.9296 79.8438C82.2734 79.3203 83.375 77.9141 85.3906 79.0235C86.1406 79.4375 86.4062 79.8047 86.2812 80.336C86.375 80.4453 86.5468 80.5782 86.7968 80.4766C87.6093 79.5703 88.6093 79.3828 89.7734 80.2891C91.0937 81.3203 91.0937 82.0547 90.8593 82.7813L90.8671 82.7891C90.8671 82.7891 90.9218 83.2969 91.3046 83.2578C91.7031 82.9141 92.1796 82.9141 92.9374 83.461C94.9687 84.9297 94.1328 86.3203 93.789 87.1407C93.8359 87.2188 93.9062 87.2735 94.039 87.2657C94.3046 87.125 94.6406 87.125 95.0937 87.3828C96.1718 88 96.0156 90.0313 95.7109 90.6953C95.375 91.4219 93.5312 93.9688 92.8906 94.6875C92.7421 94.8516 92.5625 94.9688 92.3671 95.0469C92.3906 95.0391 92.414 95.0313 92.4296 95.0235C91.8749 95.3672 90.9062 95.7813 89.9609 95.1953C89.9609 95.1953 89.3593 94.7578 89.3046 94.2969C88.2812 94.8672 86.8671 93.8047 86.8671 93.8047C86.2031 93.2969 86.0312 92.7266 86.0546 92.2344C85.7187 92.4375 85.3515 92.5157 85 92.5235C83.9375 92.5547 82.9609 91.9297 82.9609 91.9297C81.4375 91.0625 81.1328 90.1563 81.1406 89.5547C80.3515 90.0469 79.3749 89.6797 79.3749 89.6797C77.6484 88.8985 77.7031 87.2188 77.7031 87.2188Z" fill="url(#paint6_linear_26_189)"/>
<path d="M90.8047 94.961C90.6719 94.8906 90.5469 94.8125 90.4297 94.711C90.4141 94.6953 90.3906 94.6797 90.375 94.6563C90.1562 94.4141 90.0938 94.0234 90.6641 93.2422C92.2266 91.1719 92.8437 89.625 92.8437 89.625C93.2734 88.5391 93.1172 88.3594 93.1172 88.3594C92.9688 88.1172 92.6641 88.8203 92.6641 88.8203C91.1172 91.6094 90.0547 92.8281 89.5938 93.2813C89.5703 93.2969 89.5469 93.3125 89.5234 93.3203C89.4375 93.375 89.3438 93.4297 89.2422 93.4688C89.2031 93.4844 89.1562 93.5 89.1172 93.5156C89.0312 93.5469 88.9375 93.5625 88.8438 93.5781C88.7969 93.5859 88.75 93.5938 88.6953 93.5938C88.5938 93.5938 88.4922 93.5859 88.3828 93.5625C88.3359 93.5547 88.2891 93.5547 88.2422 93.5391C87.9864 93.4708 87.7472 93.3511 87.5391 93.1875C87.5078 93.1563 87.4687 93.125 87.4375 93.0938C87.4062 93.0625 87.3672 93.0313 87.3359 93C87.2969 92.9531 87.2578 92.8984 87.2188 92.8516C87.2031 92.8281 87.1797 92.8047 87.1641 92.7734C87.125 92.7109 87.0938 92.6484 87.0625 92.5781C87.0547 92.5547 87.0391 92.5313 87.0312 92.5078C87 92.4375 86.9844 92.3594 86.9688 92.2813L86.9453 92.2109C86.9297 92.1328 86.9297 92.0469 86.9219 91.9688C86.9219 91.9375 86.9141 91.9141 86.9141 91.8906C86.9141 91.8047 86.9297 91.7188 86.9453 91.6328C86.9531 91.6016 86.9531 91.5703 86.9609 91.5313C86.9766 91.4453 87.0156 91.3594 87.0469 91.2656C87.0625 91.2266 87.0703 91.1875 87.0859 91.1563C88.8672 88.6406 89.7891 86.4453 89.7891 86.4453C90.0859 85.8359 90.1953 85.1953 90.1953 85.1953C90 84.8359 89.6875 85.3594 89.6875 85.3594C87.6562 89.1406 86.4531 90.6563 86.4531 90.6563C86.4531 90.6563 85.5078 92.3047 83.4375 91.0703C83.4375 91.0703 82.4141 90.4141 82.2422 89.9531C82.0937 89.5703 82 88.8906 82.5234 87.9219C82.5234 87.9219 83.7656 85.3828 85.8125 82.1875C85.8125 82.1875 85.9453 81.6875 85.4844 81.9688C85.125 82.1875 84.8672 82.6406 84.7422 82.7813C84.7422 82.7813 83.5312 84.3985 81.7734 87.625C81.7734 87.625 81.3828 88.3672 80.9297 88.7344C80.4844 88.9219 79.9219 88.8516 79.3047 88.3906C77.9688 87.3906 78.4688 85.9922 79.2109 84.5547C79.6172 83.7734 80.5469 82.0156 81.4297 80.6094C81.5156 80.5781 81.6016 80.5469 81.6875 80.5313C81.9687 80.4844 82.1953 80.3359 82.3359 80.1172C83.0391 79.0469 82.4844 78.0781 81.5 79.5703C79.0312 79.9922 77.2812 84.8203 77.1953 87.2031C77.1953 87.2891 77.1562 89.2266 79.1562 90.1172C79.2188 90.1406 79.9453 90.4063 80.7266 90.2266C80.9219 90.875 81.4531 91.6328 82.6953 92.3438C82.7188 92.3594 83.8047 93.0235 84.9922 93.0078C85.2109 93 85.4297 92.9766 85.6328 92.9219C85.7578 93.3281 86.0234 93.7735 86.5547 94.1797C86.6172 94.2266 87.8359 95.1406 89.0078 94.9063C89.2344 95.2656 89.5625 95.5156 89.6484 95.5781C90.0078 95.8047 90.3906 95.9219 90.7812 95.9531H91.1328C91.6328 95.9219 92.1562 95.75 92.6719 95.4297C92.6797 95.4297 92.6797 95.4219 92.6875 95.4219C93.8984 94.5938 95.6406 91.1328 95.6406 90.7813C95.6484 90.7813 93.0156 95.3438 90.8047 94.961ZM22.2109 83C22.1172 80.6172 20.3672 75.7891 17.9062 75.3672C16.9297 73.875 16.3672 74.8438 17.0703 75.9141C17.2109 76.1328 17.4453 76.2734 17.7188 76.3281C17.8047 76.3438 17.8906 76.375 17.9766 76.4063C18.8594 77.8125 19.7891 79.5781 20.1953 80.3516C20.9375 81.7813 21.4297 83.1797 20.1016 84.1875C19.4844 84.6484 18.9297 84.7188 18.4766 84.5313C18.0312 84.1641 17.6328 83.4219 17.6328 83.4219C15.875 80.1953 14.6641 78.5781 14.6641 78.5781C14.5391 78.4375 14.2891 77.9922 13.9219 77.7656C13.4609 77.4844 13.5938 77.9844 13.5938 77.9844C15.6406 81.1719 16.8828 83.7188 16.8828 83.7188C17.4141 84.6875 17.3203 85.3672 17.1641 85.75C16.9922 86.2109 15.9688 86.8672 15.9688 86.8672C13.9062 88.1016 12.9531 86.4531 12.9531 86.4531C12.9531 86.4531 11.7422 84.9375 9.71875 81.1563C9.71875 81.1563 9.39844 80.6328 9.21094 80.9922C9.21094 80.9922 9.32031 81.6328 9.61719 82.2422C9.61719 82.2422 10.5391 84.4297 12.3203 86.9531C12.3359 86.9922 12.3438 87.0313 12.3594 87.0625C12.3906 87.1484 12.4219 87.2422 12.4453 87.3281C12.4531 87.3594 12.4531 87.3906 12.4609 87.4297C12.4766 87.5156 12.4922 87.6016 12.4922 87.6875C12.4922 87.7188 12.4844 87.7422 12.4844 87.7656C12.4844 87.8516 12.4766 87.9297 12.4609 88.0078C12.4531 88.0313 12.4453 88.0547 12.4453 88.0781C12.4297 88.1563 12.4062 88.2344 12.375 88.3047C12.3672 88.3281 12.3516 88.3516 12.3438 88.375C12.3125 88.4375 12.2812 88.5078 12.2422 88.5703C12.2266 88.5938 12.2031 88.6172 12.1875 88.6484C12.1484 88.7031 12.1094 88.75 12.0703 88.7969C12.0391 88.8281 12 88.8594 11.9688 88.8906C11.9375 88.9219 11.9062 88.9531 11.8672 88.9844C11.7969 89.0391 11.7187 89.0938 11.6484 89.1328C11.4766 89.2266 11.3125 89.2969 11.1641 89.3359C11.1172 89.3516 11.0703 89.3516 11.0156 89.3594C10.9062 89.375 10.8047 89.3906 10.7031 89.3906C10.6562 89.3906 10.6016 89.3828 10.5547 89.375C10.4609 89.3594 10.3672 89.3438 10.2812 89.3125C10.2422 89.2969 10.1953 89.2813 10.1562 89.2656C10.0625 89.2266 9.96875 89.1719 9.875 89.1172C9.85156 89.1016 9.82812 89.0938 9.80469 89.0781C9.34375 88.625 8.28125 87.4063 6.73437 84.6172C6.73437 84.6172 6.42969 83.9141 6.28125 84.1563C6.28125 84.1563 6.125 84.3438 6.55469 85.4219C6.55469 85.4219 7.17188 86.9688 8.73438 89.0391C9.30469 89.8203 9.24219 90.2109 9.02344 90.4531C9.00781 90.4688 8.98437 90.4844 8.96875 90.5078C8.85937 90.6094 8.72656 90.6875 8.59375 90.7578C6.38281 91.1406 3.75 86.5703 3.75 86.5703C3.75 86.9297 5.49219 90.3906 6.70312 91.2109C6.71094 91.2109 6.71094 91.2188 6.71875 91.2188C7.23438 91.5391 7.75 91.7109 8.25781 91.7422H8.60938C9.00781 91.7109 9.39062 91.5938 9.74219 91.3672C9.82812 91.3047 10.1562 91.0469 10.3828 90.6953C11.5547 90.9297 12.7812 90.0156 12.8359 89.9688C13.3672 89.5625 13.6328 89.1172 13.7578 88.7109C13.9609 88.7656 14.1719 88.7969 14.3984 88.7969C15.5859 88.8203 16.6719 88.1484 16.6953 88.1328C17.9375 87.4297 18.4688 86.6641 18.6641 86.0156C19.4453 86.1875 20.1719 85.9297 20.2344 85.9063C22.25 85.0234 22.2109 83.0781 22.2109 83Z" fill="#BA8F63"/>
<path d="M50.4454 2.24219C18.4063 2.24219 18.6641 31.8672 18.6641 32.3359C18.6641 51.5234 20.1329 78.625 27.8126 89.2891C30.8594 93.5156 36.7423 93.75 36.7423 93.75L50.0001 93.7344L63.2579 93.75C63.2579 93.75 69.1485 93.5156 72.1876 89.2891C79.8673 78.625 81.336 51.5234 81.336 32.3359C81.3282 31.8672 82.4844 2.24219 50.4454 2.24219Z" fill="#AB872F"/>
<path d="M50.4454 2.24219C18.4063 2.24219 18.6641 31.8672 18.6641 32.3359C18.6641 51.5234 20.1329 78.625 27.8126 89.2891C30.8594 93.5156 36.7423 93.75 36.7423 93.75L50.0001 93.7344L63.2579 93.75C63.2579 93.75 69.1485 93.5156 72.1876 89.2891C79.8673 78.625 81.336 51.5234 81.336 32.3359C81.3282 31.8672 82.4844 2.24219 50.4454 2.24219Z" fill="url(#paint7_radial_26_189)"/>
<path d="M49.9922 12.4609C36.5547 12.4609 24.1094 22.4531 24.1094 43.6406C24.1094 60.6641 34.6484 70.7266 43.8203 73.9766C46.0078 74.75 48.1172 75.1406 49.9922 75.1406C51.8516 75.1406 53.9531 74.7578 56.125 73.9922C65.3125 70.7578 75.875 60.6875 75.875 43.6484C75.875 22.4453 63.4297 12.4609 49.9922 12.4609Z" fill="#E0BB95"/>
<path d="M52.9686 53.0938C52.8905 53.0625 52.8046 53.0391 52.7186 53.0312H47.2577C47.1718 53.0391 47.0936 53.0625 47.0077 53.0938C46.5155 53.2969 46.2421 53.8047 46.4764 54.3516C46.7108 54.8984 47.7968 56.4297 49.9843 56.4297C52.1718 56.4297 53.2577 54.8984 53.4921 54.3516C53.7343 53.8047 53.4686 53.2969 52.9686 53.0938Z" fill="#C48E6A"/>
<path d="M37.2969 49.8594C39.3981 49.8594 41.1016 48.0965 41.1016 45.9219C41.1016 43.7473 39.3981 41.9844 37.2969 41.9844C35.1956 41.9844 33.4922 43.7473 33.4922 45.9219C33.4922 48.0965 35.1956 49.8594 37.2969 49.8594Z" fill="#5F7E89"/>
<path d="M62.6875 49.8594C64.7888 49.8594 66.4922 48.0965 66.4922 45.9219C66.4922 43.7473 64.7888 41.9844 62.6875 41.9844C60.5862 41.9844 58.8828 43.7473 58.8828 45.9219C58.8828 48.0965 60.5862 49.8594 62.6875 49.8594Z" fill="#5F7E89"/>
<path d="M42.9452 38.8438C42.2187 37.8828 40.5468 36.4922 37.2968 36.4922C34.0468 36.4922 32.3671 37.8906 31.6484 38.8438C31.3281 39.2656 31.4062 39.7578 31.6327 40.0547C31.8359 40.3281 32.4452 40.5859 33.1171 40.3594C33.789 40.1328 35.1015 39.4531 37.2968 39.4375C39.4921 39.4531 40.8046 40.1328 41.4765 40.3594C42.1484 40.5859 42.7577 40.3359 42.9609 40.0547C43.1874 39.7578 43.2656 39.2734 42.9452 38.8438ZM68.3359 38.8438C67.6093 37.8828 65.9374 36.4922 62.6874 36.4922C59.4374 36.4922 57.7577 37.8906 57.039 38.8438C56.7187 39.2656 56.7968 39.7578 57.0234 40.0547C57.2265 40.3281 57.8359 40.5859 58.5077 40.3594C59.1796 40.1328 60.4921 39.4531 62.6874 39.4375C64.8827 39.4531 66.1952 40.1328 66.8671 40.3594C67.539 40.5859 68.1484 40.3359 68.3515 40.0547C68.5781 39.7578 68.6562 39.2734 68.3359 38.8438Z" fill="#AB872F"/>
<path d="M85.9297 96.8594V63.4141C85.9297 60.6172 83.6484 58.3359 80.8516 58.3359H19.1328C16.3359 58.3359 14.0547 60.6172 14.0547 63.4141V96.8672H85.9297V96.8594Z" fill="url(#paint8_linear_26_189)"/>
<path d="M61.7109 96.8594C61.2344 95.3516 60.6094 93.6484 60.0781 91.8359C59.0078 88.1953 58.5625 82.1172 58.375 77.875C58.2578 75.1953 56.0391 73.0781 53.3359 73.0781H46.6563C43.9531 73.0781 41.7344 75.1875 41.6172 77.875C41.4297 82.1172 40.9844 88.1953 39.9141 91.8359C39.3828 93.6484 38.7656 95.3516 38.2812 96.8594H61.7109Z" fill="url(#paint9_linear_26_189)"/>
<path d="M50.4454 2.24219C18.4063 2.24219 18.6641 31.8672 18.6641 32.3359C18.6641 38.3984 18.8126 45.25 19.2501 52.1172L24.5001 52.1016C24.4532 49.8203 26.0548 35.7188 30.8126 34.6484C48.2813 30.7188 58.1641 21.4531 58.1641 21.4531C60.7344 27.0625 68.7735 32.5391 71.6563 34.625C74.0235 36.3359 74.9688 49.1172 74.9298 52.1094H80.7266C80.7266 52.0703 80.7423 52.0312 80.7423 51.9844C81.1798 45.1484 81.3204 38.3438 81.3204 32.3203C81.3282 31.8672 82.4844 2.24219 50.4454 2.24219Z" fill="#AB872F"/>
<path d="M50.4454 2.24219C18.4063 2.24219 18.6641 31.8672 18.6641 32.3359C18.6641 38.3984 18.8126 45.25 19.2501 52.1172L24.5001 52.1016C24.4532 49.8203 26.0548 35.7188 30.8126 34.6484C48.2813 30.7188 58.1641 21.4531 58.1641 21.4531C60.7344 27.0625 68.7735 32.5391 71.6563 34.625C74.0235 36.3359 74.9688 49.1172 74.9298 52.1094H80.7266C80.7266 52.0703 80.7423 52.0312 80.7423 51.9844C81.1798 45.1484 81.3204 38.3438 81.3204 32.3203C81.3282 31.8672 82.4844 2.24219 50.4454 2.24219Z" fill="url(#paint10_radial_26_189)"/>
<defs>
<linearGradient id="paint0_linear_26_189" x1="49.9953" y1="6.64688" x2="49.9953" y2="68.8055" gradientUnits="userSpaceOnUse">
<stop offset="0.003" stop-color="#424242"/>
<stop offset="0.271" stop-color="#353535"/>
<stop offset="0.764" stop-color="#131313"/>
<stop offset="1"/>
</linearGradient>
<linearGradient id="paint1_linear_26_189" x1="49.9953" y1="6.64688" x2="49.9953" y2="68.8055" gradientUnits="userSpaceOnUse">
<stop offset="0.001" stop-color="#BFBEBE"/>
<stop offset="0.15" stop-color="#212121" stop-opacity="0"/>
<stop offset="0.776" stop-color="#212121" stop-opacity="0"/>
<stop offset="1" stop-color="#BFBEBE"/>
</linearGradient>
<linearGradient id="paint2_linear_26_189" x1="3.72734" y1="37.4984" x2="96.9648" y2="37.4984" gradientUnits="userSpaceOnUse">
<stop offset="0.001" stop-color="#BFBEBE"/>
<stop offset="0.1" stop-color="#212121" stop-opacity="0"/>
<stop offset="0.9" stop-color="#212121" stop-opacity="0"/>
<stop offset="1" stop-color="#BFBEBE"/>
</linearGradient>
<linearGradient id="paint3_linear_26_189" x1="4.38991" y1="92.3227" x2="17.5477" y2="92.3227" gradientUnits="userSpaceOnUse">
<stop stop-color="#AA00FF"/>
<stop offset="0.987" stop-color="#9500E0"/>
</linearGradient>
<linearGradient id="paint4_linear_26_189" x1="15.9547" y1="88.2149" x2="8.39137" y2="77.4516" gradientUnits="userSpaceOnUse">
<stop stop-color="#CCA47A"/>
<stop offset="0.5" stop-color="#E0BB95"/>
</linearGradient>
<linearGradient id="paint5_linear_26_189" x1="77.4976" y1="92.8485" x2="94.3694" y2="92.8485" gradientUnits="userSpaceOnUse">
<stop stop-color="#AA00FF"/>
<stop offset="0.987" stop-color="#9500E0"/>
</linearGradient>
<linearGradient id="paint6_linear_26_189" x1="83.6031" y1="91.9985" x2="91.1664" y2="81.2352" gradientUnits="userSpaceOnUse">
<stop stop-color="#CCA47A"/>
<stop offset="0.5" stop-color="#E0BB95"/>
</linearGradient>
<radialGradient id="paint7_radial_26_189" cx="0" cy="0" r="1" gradientUnits="userSpaceOnUse" gradientTransform="translate(50.0001 45.6535) scale(37.1344 44.1936)">
<stop offset="0.794" stop-color="#BFA055" stop-opacity="0"/>
<stop offset="1" stop-color="#BFA055"/>
</radialGradient>
<linearGradient id="paint8_linear_26_189" x1="49.9953" y1="58.2211" x2="49.9953" y2="111.67" gradientUnits="userSpaceOnUse">
<stop stop-color="#4DD0E1"/>
<stop offset="1" stop-color="#00BCD4"/>
</linearGradient>
<linearGradient id="paint9_linear_26_189" x1="49.9945" y1="72.3391" x2="49.9945" y2="103.025" gradientUnits="userSpaceOnUse">
<stop stop-color="#00BCD4"/>
<stop offset="1" stop-color="#0097A7"/>
</linearGradient>
<radialGradient id="paint10_radial_26_189" cx="0" cy="0" r="1" gradientUnits="userSpaceOnUse" gradientTransform="translate(50.2602 48.8014) scale(38.8969 47.2014)">
<stop offset="0.794" stop-color="#BFA055" stop-opacity="0"/>
<stop offset="1" stop-color="#BFA055"/>
</radialGradient>
</defs>
</svg>
