<svg width="40" height="31" viewBox="0 0 40 31" fill="none" xmlns="http://www.w3.org/2000/svg">
<path d="M4 30.3354C2.9 30.3354 1.95867 29.9684 1.176 29.2344C0.393333 28.5005 0.00133333 27.6172 0 26.5844V4.0786C0 3.04709 0.392 2.16436 1.176 1.43042C1.96 0.696481 2.90133 0.328887 4 0.327637H36C37.1 0.327637 38.042 0.695231 38.826 1.43042C39.61 2.16561 40.0013 3.04834 40 4.0786V26.5844C40 27.6159 39.6087 28.4993 38.826 29.2344C38.0433 29.9696 37.1013 30.3366 36 30.3354H4ZM36 7.82957L21.05 16.5974C20.8833 16.6912 20.7087 16.7619 20.526 16.8094C20.3433 16.8569 20.168 16.88 20 16.8788C19.832 16.8775 19.6573 16.8544 19.476 16.8094C19.2947 16.7644 19.1193 16.6937 18.95 16.5974L4 7.82957V26.5844H36V7.82957ZM20 13.456L36 4.0786H4L20 13.456ZM4 8.29844V5.5321V5.57899V5.55648V8.29844Z" fill="currentColor"/>
</svg>
