<svg width="36" height="34" viewBox="0 0 36 34" fill="none" xmlns="http://www.w3.org/2000/svg">
<path d="M33.9 33.8219C34.5 33.8219 35 33.6344 35.4 33.2593C35.8 32.8842 36 32.4153 36 31.8527V24.257C36 23.8506 35.85 23.4836 35.55 23.156C35.25 22.8285 34.8667 22.6015 34.4 22.4752L27.5 21.1624C27.0333 21.0999 26.558 21.1393 26.074 21.2806C25.59 21.4219 25.1987 21.6325 24.9 21.9126L20.2 26.32C18.9333 25.6323 17.7333 24.874 16.6 24.045C15.4667 23.2161 14.3833 22.3177 13.35 21.35C12.25 20.3497 11.2413 19.3107 10.324 18.2329C9.40667 17.1551 8.61533 16.0373 7.95 14.8795L12.8 10.2846C13.0667 10.0345 13.25 9.7376 13.35 9.39376C13.45 9.04992 13.4667 8.62794 13.4 8.12781L12.1 1.56362C12.0333 1.15726 11.8167 0.805923 11.45 0.509597C11.0833 0.213271 10.6667 0.0644827 10.2 0.0632324H2.1C1.5 0.0632324 1 0.250781 0.599998 0.625877C0.199997 1.00097 0 1.46984 0 2.03249C0 5.93974 0.907997 9.80011 2.724 13.6136C4.54 17.4271 7.11533 20.8967 10.45 24.0225C13.7847 27.1483 17.4847 29.5633 21.55 31.2675C25.6153 32.9717 29.732 33.8232 33.9 33.8219Z" fill="currentColor"/>
</svg>
