<svg width="61" height="61" viewBox="0 0 61 61" fill="none" xmlns="http://www.w3.org/2000/svg">
<path d="M55.7255 48.5396H5.43801C4.15364 48.5396 3.6427 47.7381 3.6427 46.7443V14.4193C3.6427 13.4256 4.44426 12.624 5.43801 12.624H55.7208C56.7146 12.624 57.5161 13.4256 57.5161 14.4193V46.7443C57.5171 46.98 57.4714 47.2135 57.3818 47.4314C57.2922 47.6493 57.1604 47.8474 56.994 48.0142C56.8276 48.1811 56.6299 48.3134 56.4122 48.4035C56.1945 48.4937 55.9611 48.54 55.7255 48.5396Z" fill="white"/>
<path d="M57.2724 13.763C57.1582 13.6262 56.9947 13.5401 56.8173 13.5234C56.6399 13.5067 56.4631 13.5609 56.3255 13.674L39.1271 28.149V31.1255L40.8943 29.5177L56.0114 47.6724C56.3255 47.9771 56.5927 48.0943 56.8693 47.8927C57.0427 47.7662 57.0052 47.5271 56.7521 47.2505L42.8911 27.7037L57.188 14.7099C57.4693 14.4755 57.5114 14.049 57.2724 13.763ZM22.6318 28.6459L4.838 13.674C4.7701 13.6174 4.69168 13.5748 4.60725 13.5486C4.52282 13.5224 4.43404 13.5132 4.34604 13.5215C4.25803 13.5298 4.17253 13.5554 4.09446 13.5968C4.01638 13.6383 3.94728 13.6948 3.89113 13.763C3.65207 14.049 3.69425 14.4755 3.98019 14.7099L18.2771 27.7037L4.41144 47.2552C4.163 47.5318 4.1255 47.7709 4.29425 47.8974C4.57082 48.099 4.838 47.9818 5.15207 47.6771L20.2693 29.5177L22.6318 31.6646V28.6459Z" fill="#6FBFF0" stroke="#6FBFF0" stroke-width="0.0625" stroke-miterlimit="10"/>
<path d="M55.7255 48.5396H5.43801C4.15364 48.5396 3.6427 47.7381 3.6427 46.7443V14.4193C3.6427 13.4256 4.44426 12.624 5.43801 12.624H55.7208C56.7146 12.624 57.5161 13.4256 57.5161 14.4193V46.7443C57.5171 46.98 57.4714 47.2135 57.3818 47.4314C57.2922 47.6493 57.1604 47.8474 56.994 48.0142C56.8276 48.1811 56.6299 48.3134 56.4122 48.4035C56.1945 48.4937 55.9611 48.54 55.7255 48.5396Z" stroke="#6FBFF0" stroke-width="0.5" stroke-miterlimit="10"/>
<path d="M24.7318 20.2504L36.6849 19.177H37.3505C37.4865 19.177 37.6177 19.2379 37.7021 19.3458L38.3818 20.2129C38.4052 20.2441 38.4183 20.2818 38.4193 20.3208V23.9864C38.4193 24.0848 38.3396 24.1645 38.2411 24.1645H28.8661C28.8189 24.1645 28.7736 24.1833 28.7402 24.2167C28.7068 24.2501 28.688 24.2954 28.688 24.3426V29.0254C28.688 29.1333 28.7818 29.2129 28.8896 29.1989L36.0333 28.1442H36.3474C36.4974 28.1442 36.638 28.2145 36.7271 28.327L37.3974 29.1801C37.4208 29.2113 37.4339 29.249 37.4349 29.2879V32.9536C37.4349 33.052 37.3552 33.1317 37.2568 33.1317H28.8708C28.8236 33.1317 28.7783 33.1505 28.7449 33.1839C28.7115 33.2173 28.6927 33.2626 28.6927 33.3098V37.9879C28.6927 38.0958 28.7911 38.1801 28.8989 38.1614L35.0536 37.1114C35.063 37.1114 35.0724 37.1067 35.0818 37.1067H37.3318C37.4818 37.1067 37.6224 37.177 37.7161 37.2942L38.3818 38.1473C38.4052 38.1785 38.4183 38.2162 38.4193 38.2551V41.9208C38.4193 42.0192 38.3396 42.0989 38.2411 42.0989H24.6661C24.6393 42.0989 24.6128 42.0931 24.5885 42.0817C24.5642 42.0704 24.5427 42.0538 24.5255 42.0333L23.7661 41.0629C23.742 41.0286 23.7289 40.9877 23.7286 40.9458L24.5724 20.4239C24.5771 20.3301 24.6474 20.2551 24.7318 20.2504Z" fill="#0D47A1"/>
<path d="M24.038 19.177H37.2614C37.4349 19.177 37.5708 19.3176 37.5708 19.4864V22.7676C37.5708 22.9411 37.4302 23.077 37.2614 23.077H28.1536C27.9802 23.077 27.8443 23.2176 27.8443 23.3864V27.8254C27.8443 27.9989 27.9849 28.1348 28.1536 28.1348H36.2818C36.4552 28.1348 36.5911 28.2754 36.5911 28.4442V31.7254C36.5911 31.8989 36.4505 32.0348 36.2818 32.0348H28.1536C27.9802 32.0348 27.8443 32.1754 27.8443 32.3442V36.7833C27.8443 36.9567 27.9849 37.0926 28.1536 37.0926H37.2614C37.4349 37.0926 37.5708 37.2333 37.5708 37.402V40.6833C37.5708 40.8567 37.4302 40.9926 37.2614 40.9926H24.038C23.956 40.9926 23.8773 40.96 23.8193 40.902C23.7612 40.844 23.7286 40.7653 23.7286 40.6833V19.4864C23.7286 19.3129 23.8693 19.177 24.038 19.177Z" fill="#2196F3"/>
</svg>
