<svg width="100" height="100" viewBox="0 0 100 100" fill="none" xmlns="http://www.w3.org/2000/svg">
<path d="M77.3906 71.4219C77.3906 71.4219 65.5859 82.5 49.9766 82.5C34.3672 82.5 22.5703 71.4219 22.5703 71.4219C22.5703 71.4219 20.375 60.8828 26.0469 42.6875C29.0391 33.0937 71.6172 32.1172 74.9531 40.5078C80.625 54.75 77.3906 71.4219 77.3906 71.4219Z" fill="#424242"/>
<path d="M22.5703 71.4219L26.3125 74.4219C26.3125 74.4219 26.2813 68.4844 28.1172 62.9453C28.8047 60.875 31.2578 60.0078 33.1016 61.1719L47.3906 70.1328C48.174 70.6232 49.0781 70.8865 50.0023 70.8934C50.9265 70.9003 51.8344 70.6505 52.625 70.1719C59.4531 66.0312 77.2656 55.1953 78.0781 54.5312C78.0781 54.5312 78.0781 53.1953 77.7422 51.4922L22.3672 51.5625L22.5703 71.4219Z" fill="#212121"/>
<path d="M95.9453 40.6484L51.5703 67.0781C50.6016 67.6562 49.3906 67.6562 48.4141 67.0781L4.05469 40.6484C2.82031 39.9141 2.82031 38.125 4.05469 37.3906L48.4297 10.9609C49.3984 10.3828 50.6094 10.3828 51.5859 10.9609L95.9609 37.3906C97.1875 38.125 97.1875 39.9141 95.9453 40.6484Z" fill="#424242"/>
<path d="M50.0314 65.1406C50.0235 65.1406 50.0079 65.1484 50.0001 65.1484C49.8751 65.1484 49.7501 65.1172 49.6407 65.0469L3.26573 38.3125C3.26573 38.3125 3.03917 38.7422 3.26573 39.5156C3.50011 40.2891 3.85948 40.5391 4.0548 40.6562L48.4298 67.0859C48.9142 67.375 49.461 67.5234 50.0079 67.5234H50.0392V65.1406H50.0314Z" fill="#9E9E9E"/>
<path d="M50 65.1406C50.0078 65.1406 50.0234 65.1484 50.0312 65.1484C50.1562 65.1484 50.2812 65.1172 50.3906 65.0469L96.7656 38.3125C96.7656 38.3125 96.9922 38.7422 96.7656 39.5156C96.5312 40.2891 96.1719 40.5391 95.9766 40.6562L51.6016 67.0859C51.1172 67.375 50.5703 67.5234 50.0234 67.5234H49.9922V65.1406H50Z" fill="#616161"/>
<path d="M27.6953 54.7343L27.9453 52.539C27.9453 52.539 47.0937 42.125 48.9844 41.0312C50.875 39.9375 52.8594 38.7187 53.7422 37.7422C55.3047 36.0234 54.1797 34.9453 54.1797 34.9453C54.1797 34.9453 52.9453 36.9453 50 36.5937C48.3125 36.3906 46.1172 35.0234 45.75 34.3828C45.3828 33.7422 24.1328 49.9297 24.1328 49.9297L23.9844 52.5312L27.6953 54.7343Z" fill="#424242"/>
<path d="M54.1796 34.9531C52.1327 37.8125 48.664 36.5625 48.664 36.5625C48.664 36.5625 37.7968 41.7734 37.3905 40.9844C36.9843 40.1953 46.3671 35.3672 46.3671 35.3672C46.3671 35.3672 45.8437 33.4453 45.8984 32.625C45.8984 32.625 28.9296 43.4219 22.5624 47.0547C19.2265 48.9609 18.5155 50.7578 18.5234 53.2891C18.5234 54.3984 18.539 58 18.5546 60.1484C18.5546 60.5469 18.3827 60.9219 18.078 61.1719C17.6166 61.5499 17.2449 62.0255 16.9895 62.5646C16.7342 63.1036 16.6017 63.6926 16.6015 64.2891C16.6015 65.4844 17.1249 66.5547 17.953 67.2969C18.3984 67.6953 18.3046 68.5547 18.3437 69.1094C18.4218 70.1719 18.3437 70.6562 17.9062 71.6406C17.4765 72.6016 17.078 73.5859 16.8046 74.6016C16.5937 75.3828 16.453 76.1875 16.3124 76.9844C15.3827 82.3203 14.9609 88.0234 12.4999 92.9297C12.4536 93.0214 12.4259 93.1214 12.4185 93.2238C12.4111 93.3263 12.4242 93.4292 12.4569 93.5266C12.4896 93.624 12.5413 93.7139 12.609 93.7912C12.6768 93.8684 12.7592 93.9314 12.8515 93.9766C13.037 94.0702 13.2521 94.0866 13.4497 94.0222C13.6473 93.9578 13.8114 93.8178 13.9062 93.6328C15.1874 91.0781 15.8515 88.2812 16.3984 85.5078C16.3671 88.0156 16.3515 90.5469 16.2655 93.2812C16.2499 93.8125 16.2109 94.8828 16.6952 95.1172C18.5155 96 18.5155 93.2812 18.5155 93.2812C18.5155 93.2812 18.539 95.7266 21.0155 95.7266C23.4921 95.7266 23.6718 93.2812 23.6718 93.2812C23.6718 93.2812 23.8515 95.5234 25.1249 95.4141C25.6405 95.3672 26.3202 95.0547 26.078 92.375C25.8359 89.7031 25.2343 80.125 24.9765 77.0937C24.6171 72.8984 23.2421 70.4063 22.9609 68.9219C22.8593 68.3594 22.8515 67.7734 23.2968 67.4062C23.75 67.0349 24.1169 66.5693 24.372 66.0417C24.6271 65.5142 24.7642 64.9375 24.7739 64.3517C24.7836 63.7658 24.6655 63.1849 24.428 62.6492C24.1904 62.1136 23.8391 61.6361 23.3984 61.25C23.2417 61.1131 23.1191 60.9416 23.0404 60.749C22.9618 60.5564 22.9292 60.3481 22.9452 60.1406C23.0937 58.1172 23.2577 55.1797 23.3905 54.5C23.9687 51.4453 25.4765 50.8984 27.0234 49.9922C28.5702 49.0781 50.9765 38.9063 52.2812 38.0391C54.6952 36.4219 54.1796 34.9531 54.1796 34.9531Z" fill="#E2A610"/>
<path d="M54.1798 34.9531C52.2501 37.6797 48.2423 36.4609 48.2423 36.4609C48.2423 36.4609 38.0001 41 38.6798 40.1797C39.3516 39.3594 46.3673 35.3672 46.3673 35.3672C46.3673 35.3672 45.8438 33.4453 45.8985 32.625C45.8985 32.625 28.6329 42.6016 21.9376 47.3984C20.211 48.6406 18.0704 50.6719 19.8126 52.6953C20.6173 53.625 22.1719 53.8203 23.1641 53.0859C23.7657 52.6484 24.2344 52.0078 24.7657 51.5C25.4219 50.8594 26.2188 50.4531 27.0001 49.9922C28.5469 49.0781 50.9532 38.9063 52.2579 38.0391C54.6954 36.4219 54.1798 34.9531 54.1798 34.9531Z" fill="#FFCA28"/>
<path d="M20.3985 71.7656C19.3673 71.7656 18.672 71.6796 18.0392 71.5312C17.9263 71.5054 17.8264 71.4399 17.7576 71.3468C17.6888 71.2536 17.6556 71.1389 17.6642 71.0234L17.8673 68.039C17.8907 67.7343 18.1798 67.5234 18.4767 67.6093C19.1798 67.8125 20.586 68.0156 22.8829 67.5312C23.1642 67.4687 23.4454 67.664 23.4767 67.9531L23.7892 70.9218C23.8126 71.164 23.6563 71.3906 23.422 71.4453C22.2267 71.7187 21.3595 71.7656 20.3985 71.7656Z" fill="#9E740B"/>
<path d="M77.3907 71.4219C77.3907 71.4219 78.7735 64.2031 78.2188 56.5234C78.1251 55.2266 77.3282 54.1094 76.711 58.6484C76.3595 61.25 75.5938 69.0391 74.2891 73.9063C76.2813 72.4688 77.3907 71.4219 77.3907 71.4219ZM51.3516 28.7422C51.922 28.9219 52.4454 29.3594 52.5938 29.9453C52.7891 30.7266 52.297 31.5078 51.7657 32.1172C50.7266 33.3125 49.297 34.3594 47.711 34.3047C47.1876 34.2891 46.6251 34.1172 46.3048 33.7031C46.0782 33.4141 46.0001 33.0391 45.9766 32.6719C45.836 29.9922 48.8673 27.961 51.3516 28.7422Z" fill="#616161"/>
</svg>
