<svg width="61" height="61" viewBox="0 0 61 61" fill="none" xmlns="http://www.w3.org/2000/svg">
<path d="M7.10218 42.7083C7.10218 42.7083 6.65218 45.652 7.69749 48.2489C8.56937 50.4239 10.8287 53.2879 15.1506 55.4723C19.4725 57.6567 24.4366 58.4254 31.7631 58.5754C39.0897 58.7301 46.6178 57.0192 50.2319 53.8458C53.8506 50.6676 55.1162 47.9958 55.0131 45.0942C54.91 42.1926 53.3678 41.0911 53.3678 41.0911L7.10218 42.7083Z" fill="#FCB745"/>
<path d="M9.19735 39.7505L7.05985 41.888C7.05985 41.888 6.4786 44.7474 9.7036 47.8411C12.1458 50.1802 16.4677 54.2442 30.8208 54.3521C44.2552 54.4552 48.4786 51.5021 51.0708 49.4161C53.6677 47.3302 54.6427 43.7067 54.3848 42.6896C54.1317 41.6724 53.3348 41.0864 53.3348 41.0864L9.19735 39.7505Z" fill="#E78B20"/>
<path d="M10.1115 42.8021C10.1115 42.8021 9.50685 43.8287 9.70372 44.4803C9.85841 44.9912 10.1631 47.0771 16.2147 49.7209C19.4162 51.1225 24.8631 52.2662 31.9365 52.06C40.3272 51.8162 47.049 50.1287 50.3022 47.0725C53.635 43.9459 52.9975 42.085 52.9975 42.085L10.1115 42.8021Z" fill="#FFD290"/>
<path d="M8.38175 35.677C8.38175 35.677 6.3755 37.7207 6.04269 38.6301C5.72863 39.4879 5.77081 40.7348 6.32394 41.7426C7.06925 43.0926 7.99738 43.2332 9.14581 43.9223C10.388 44.6629 12.3521 46.9739 17.1849 47.9911C22.0177 49.0082 28.3786 49.4676 31.7864 49.4676C35.1943 49.4676 39.7224 49.4161 43.9458 47.9911C48.1693 46.5661 53.0021 43.7676 54.1224 41.2739C55.2427 38.7801 54.1739 37.3036 54.1739 37.3036L51.7318 35.677H8.38175Z" fill="#6D544D"/>
<path d="M7.21003 33.0849C7.21003 33.0849 5.65378 33.0146 5.27878 35.3724C5.0069 37.0881 6.2444 38.1709 6.2444 38.1709C6.2444 38.1709 5.58815 39.1131 6.34753 40.3084C7.06003 41.4287 7.82409 41.6818 9.39909 41.9349C10.5335 42.1178 11.1288 41.7803 12.6053 42.5959C14.4569 43.6178 15.2491 45.4459 17.7944 46.0037C20.3397 46.5615 23.1897 46.0553 23.2882 45.6474C23.3866 45.2396 19.7257 43.7162 13.1116 39.999C10.8803 38.7474 8.83659 37.0459 8.27878 36.1834C7.72097 35.3209 7.21003 33.0849 7.21003 33.0849ZM39.2163 45.4974C39.2163 46.1584 41.4053 45.8537 42.4225 45.2959C43.4397 44.7381 45.0663 43.3131 46.5428 42.699C48.0194 42.0896 48.5772 42.6474 50.7147 41.6303C52.8522 40.6131 54.0241 38.2224 54.0241 38.2224C54.0241 38.2224 55.0647 36.9381 55.1491 36.0381C55.2803 34.6646 55.1444 33.999 54.1788 33.6943C53.2132 33.3896 51.1085 36.5537 50.8038 36.9099C50.4991 37.2662 45.9897 40.5615 44.2085 41.8318C42.4272 43.1021 39.2163 45.1412 39.2163 45.4974Z" fill="#9B7169"/>
<path d="M9.19736 31.3552C9.19736 31.3552 6.65204 31.6599 6.29579 32.7287C5.93954 33.7974 7.05986 35.3724 10.0083 37.3599C12.427 38.9865 20.7145 42.9005 24.0005 44.9396C27.7645 47.2787 30.952 50.5458 31.4817 50.588C32.1427 50.6396 36.7317 45.7646 43.0833 41.4802C49.1208 37.4021 53.2599 36.3943 54.7364 33.3896C55.5286 31.7771 53.6161 30.8443 53.6161 30.8443L29.0911 21.5349L9.19736 31.3552Z" fill="#FFE869"/>
<path d="M31.7865 47.8412C32.5459 47.7568 36.5162 43.9224 41.199 40.974C45.8818 38.0255 52.8006 34.8662 53.8178 33.0896C54.835 31.313 52.3928 30.1365 52.3928 30.1365L23.8975 25.3552L7.20996 31.9177C7.20996 31.9177 6.2959 32.2224 6.90527 32.9865C7.51465 33.7505 8.48027 35.0209 10.6178 36.3427C13.2146 37.9505 19.8803 40.6177 24.099 42.9052C28.3271 45.1927 30.8725 47.9396 31.7865 47.8412Z" fill="#FFBE01"/>
<path d="M9.50684 32.677L10.3928 35.0489C10.3928 35.0489 16.7678 41.4754 29.4475 41.7286C42.0662 41.9817 49.1396 35.977 49.1396 35.977L50.7521 31.927L9.50684 32.677Z" fill="#F4482B"/>
<path d="M26.1287 36.5959L25.1302 38.1943C25.1302 38.1943 27.263 39.474 27.8771 39.6943C28.7583 40.0084 29.6255 39.8959 30.924 39.4927C32.2224 39.0943 37.613 36.9474 37.613 36.9474C37.613 36.9474 42.0709 37.013 44.8693 37.0646C47.349 37.1115 49.8333 36.2209 51.1318 34.7209C52.4302 33.2209 54.4459 30.0052 54.4459 30.0052C54.4459 30.0052 55.4958 29.7568 56.1943 28.9552C56.8927 28.1537 56.9443 27.4552 56.9443 27.4552C56.9443 27.4552 56.7427 26.1052 55.9974 25.7583C55.2474 25.4068 21.8443 23.363 21.8443 23.363L8.46147 24.3615L6.20679 29.0068L13.6459 35.349L24.1318 35.949L26.1287 36.5959Z" fill="#A6B732"/>
<path d="M6.90529 24.9146C6.1506 24.5724 5.35841 24.6146 5.00685 25.613C4.65529 26.6114 4.7631 27.0521 4.7631 27.0521C4.7631 27.0521 3.73654 27.2677 3.60998 28.5567C3.45998 30.1036 5.15685 30.6521 5.15685 30.6521C5.15685 30.6521 5.23654 31.2521 5.90685 31.8521C6.67091 32.5364 7.43498 32.4661 7.43498 32.4661C7.43498 32.4661 9.4506 34.4489 10.8006 35.2458C12.1506 36.0427 14.0959 36.5958 16.0459 36.5442C17.9959 36.4927 18.6428 35.5974 20.0912 36.0942C21.5397 36.5911 25.3787 38.6114 26.9256 38.6442C29.3725 38.6958 34.6647 34.8989 35.8647 34.9505C37.0647 35.0021 42.5069 35.8505 45.4037 35.8505C48.3006 35.8505 49.3506 35.0021 49.9975 34.1536C50.6443 33.3052 51.7459 31.1583 51.3943 31.1067C51.0428 31.0552 48.7459 32.9536 47.1006 32.8036C45.4506 32.6536 44.0068 31.7067 41.9584 31.7067C39.91 31.7067 29.9256 33.0052 29.274 33.3052C28.6225 33.6052 25.8287 35.7521 25.2803 35.6536C24.7318 35.5552 22.8334 33.9567 22.1865 33.6052C21.5397 33.2536 14.7287 33.0286 13.749 33.2067C13.0459 33.3333 12.0522 33.5067 12.0522 33.5067C12.0522 33.5067 12.1506 31.9599 11.3022 31.0599C10.4537 30.1599 7.65529 28.613 7.65529 28.613C7.65529 28.613 8.00216 25.4114 6.90529 24.9146ZM51.1928 27.6099C51.1928 27.6099 54.2397 27.6099 55.0881 27.5583C55.9365 27.5067 56.935 27.4599 56.935 27.4599C56.935 27.4599 56.6444 26.0771 56.2037 25.3411C55.3037 23.8317 53.1381 23.4146 53.1381 23.4146L51.1928 27.6099Z" fill="#C2DD1F"/>
<path d="M6.20684 23.0677L5.87402 24.5396C5.87402 24.5396 10.4818 32.7005 31.1912 33.0099C43.3131 33.1927 50.2787 29.513 53.3537 26.5036C55.1959 24.6989 55.2568 22.9458 55.2568 22.9458L6.20684 23.0677Z" fill="#DE8010"/>
<path d="M5.1567 19.0084C4.8942 23.0865 5.88795 24.549 5.88795 24.549C5.88795 24.549 12.7411 30.7553 30.2442 31.0412C48.1833 31.3318 54.0145 25.3834 55.0364 23.649C55.6879 22.5474 56.2083 20.3865 55.7958 17.2365C55.1114 12.0334 49.1208 2.16151 30.1598 2.23651C11.1989 2.31151 5.54107 13.0881 5.1567 19.0084Z" fill="url(#paint0_radial_41_360)"/>
<path d="M23.1708 7.31293C23.3161 8.1098 19.7208 10.7629 19.2005 8.21761C18.713 5.8223 23.0348 6.57699 23.1708 7.31293ZM24.4552 12.3051C24.6427 12.7973 28.327 13.5051 27.9333 11.4286C27.5208 9.26761 24.0708 11.2926 24.4552 12.3051ZM27.6848 6.60511C27.7786 7.31293 32.0723 8.13793 31.9833 6.14105C31.8755 3.67543 27.577 5.7848 27.6848 6.60511ZM20.602 13.9457C20.6255 14.1051 19.5708 14.9348 18.4927 15.2582C17.5458 15.5442 16.5755 15.4223 16.4677 14.2457C16.3645 13.1114 17.1708 12.6989 18.1364 12.7973C19.2473 12.9051 20.5552 13.6411 20.602 13.9457ZM29.5223 17.2598C29.3442 16.5145 25.3083 15.4786 25.5802 17.8364C25.8567 20.1848 29.7145 18.052 29.5223 17.2598ZM33.3005 11.8926C33.1036 11.6629 32.1802 11.7051 31.0552 12.0004C30.2442 12.2161 29.6442 13.1301 30.2067 13.9973C30.863 15.0098 31.9645 14.5832 32.6677 13.7254C33.2395 13.0317 33.5208 12.1504 33.3005 11.8926ZM37.6223 6.41293C37.4958 6.27699 36.5723 6.18324 35.8177 6.54886C35.0583 6.91449 34.402 7.78636 35.1052 8.60199C35.8177 9.4223 36.877 8.94886 37.3786 8.08168C37.777 7.38324 37.8145 6.61918 37.6223 6.41293ZM40.5192 13.5473C40.3973 12.7832 37.0036 11.4239 37.027 13.5051C37.0505 15.6379 40.627 14.2364 40.5192 13.5473ZM45.2114 9.77855C45.0989 9.19261 40.7817 8.71918 41.5177 10.8989C42.2817 13.1723 45.3473 10.4911 45.2114 9.77855ZM39.2677 17.4473C39.2958 16.791 36.0098 15.2864 35.7661 17.2551C35.5223 19.2239 39.2302 18.3004 39.2677 17.4473Z" fill="#FDEAC8"/>
<defs>
<radialGradient id="paint0_radial_41_360" cx="0" cy="0" r="1" gradientUnits="userSpaceOnUse" gradientTransform="translate(30.3307 7.8582) rotate(89.3583) scale(20.6439 35.9715)">
<stop offset="0.517" stop-color="#DF8016"/>
<stop offset="0.643" stop-color="#E58C21"/>
<stop offset="1" stop-color="#F5AC3C"/>
</radialGradient>
</defs>
</svg>
