<svg width="60" height="60" viewBox="0 0 60 60" fill="none" xmlns="http://www.w3.org/2000/svg">
<path d="M56.8921 54.389L53.7656 57.0937C52.5609 58.1343 50.7328 57.9984 49.7015 56.789L12.6375 12.0515L17.4046 8.46558L57.1312 50.3625C57.3849 50.6401 57.5803 50.9658 57.7059 51.3203C57.8315 51.6748 57.8847 52.0508 57.8624 52.4262C57.8401 52.8017 57.7428 53.1688 57.5761 53.5059C57.4095 53.8431 57.1769 54.1433 56.8921 54.389Z" fill="#A06841"/>
<path d="M16.0266 16.1392L24.8485 26.7892C26.2219 24.7173 26.925 22.2329 27.4875 19.097L18.9704 10.1157C18.2796 10.6813 17.6913 11.3615 17.2313 12.1267C16.5047 13.3407 16.125 14.7235 16.0266 16.1392Z" fill="#7D5133"/>
<path d="M33.5109 2.21719C25.4156 2.12344 22.4203 2.84063 17.9109 6.73594C16.5609 7.90313 15.2062 9.07032 13.8562 10.2375C12.3844 11.5078 10.4297 12.6141 10.739 14.8125C10.8515 15.6141 11.1 16.425 10.95 17.2219C10.8047 17.9719 9.9328 18.3469 9.30936 17.9203C8.72811 17.5172 8.08123 17.025 7.36405 16.9406C6.68905 16.8656 5.98123 17.0766 5.47498 17.5266L2.33905 20.3156C2.33905 20.3156 1.88905 22.1391 5.39998 26.1141C8.91092 30.0891 11.1703 29.8031 11.1703 29.8031L14.1187 27.2109C14.6156 26.775 14.8687 26.1375 14.8594 25.4766C14.8453 24.7078 14.3953 24.1125 14.1281 23.4188C14.0765 23.2875 13.7812 22.8188 14.2969 22.3969C14.7562 21.9984 15.6984 22.1344 16.2328 22.2797C16.7719 22.425 17.2828 22.6547 17.8265 22.7953C18.8812 23.0719 19.3734 22.5797 20.1094 21.9469C20.7562 21.3844 24.6656 18.0094 25.9687 16.8844C28.5703 14.6344 24.6047 10.6969 24.6047 10.6969C22.7297 8.58751 34.0594 3.27188 34.0594 3.27188C34.8844 2.97657 34.6312 2.23126 33.5109 2.21719Z" fill="#82AEC0"/>
<path d="M17.8219 22.7954C18.0422 22.8516 18.2344 22.8704 18.4125 22.8657V22.7766C18.3657 22.2704 18.0891 21.8157 17.8125 21.3938C16.0582 18.7259 13.8923 16.3527 11.3953 14.3625C11.1891 14.1985 10.9735 14.0344 10.7532 13.8938C10.7063 14.1797 10.6969 14.4844 10.7438 14.8172C10.8563 15.6188 11.1047 16.4297 10.9547 17.2266C10.7953 18.0469 9.93753 18.2766 9.2766 17.9672C10.9875 19.0735 12.4594 20.55 13.5235 22.2844C13.6688 22.5188 13.8141 22.7672 13.9828 22.9875C14.0063 22.7579 14.1094 22.5422 14.3016 22.3969C14.761 21.9985 15.7032 22.1344 16.2375 22.2797C16.7672 22.425 17.2828 22.6547 17.8219 22.7954ZM8.17035 23.7844C10.6266 26.3532 12.0094 29.0204 11.2594 29.7422C10.5047 30.4641 7.90316 28.9641 5.44222 26.3954C2.98128 23.8266 1.58441 21.0422 2.33441 20.3204C3.08441 19.5985 5.7141 21.2157 8.17035 23.7844Z" fill="#2F7889"/>
<path d="M17.7422 10.5C19.6968 9.66561 21.4406 7.88436 23.714 5.9203C24.3656 5.3578 25.1906 4.82811 26.0343 4.42968C26.3484 4.27968 26.2359 3.80155 25.8843 3.81093C24.7125 3.82968 23.6672 4.18593 22.6406 4.63124C21.2015 5.25468 19.9359 6.20624 18.7078 7.18124C17.8687 7.85155 15.8953 9.51561 14.6531 10.5656C14.4234 10.7625 14.6015 11.0672 14.9062 11.0719C15.7875 11.0766 16.2797 11.1234 17.7422 10.5ZM5.42341 18.6609C4.59841 19.5891 5.64841 19.8422 7.50466 21.375C8.81247 22.4578 10.2 21.4547 10.214 20.4422C10.2234 19.5328 9.99841 19.0453 8.67185 18.2109C7.34997 17.3766 6.17341 17.8172 5.42341 18.6609Z" fill="#B9E4EA"/>
</svg>
