<svg width="100" height="100" viewBox="0 0 100 100" fill="none" xmlns="http://www.w3.org/2000/svg">
<path d="M91.0938 35.3907C90.2344 33.8282 88.75 31.0157 85.7812 29.0625C84.0625 27.9688 81.875 26.1719 80.9375 25.3125C80 24.4532 71.9531 17.9688 68.9844 16.7188C66.0156 15.4688 63.6719 15.3125 61.6406 16.3282C59.5312 17.4219 52.8125 20.7032 51.875 21.1719C50.9375 21.6407 49.9219 22.6563 49.9219 24.1407C49.9219 22.6563 48.9062 21.6407 47.9688 21.1719C47.0312 20.625 40.3125 17.4219 38.2031 16.3282C36.25 15.3125 33.8281 15.4688 30.8594 16.7188C27.8906 18.0469 19.8438 24.5313 18.9062 25.3125C17.9688 26.1719 15.7031 27.9688 14.0625 29.0625C11.0938 31.0157 9.60938 33.8282 8.75 35.3907C7.89062 36.9532 2.34375 45.3125 2.34375 45.3125V79.6875C2.34375 79.6875 11.7188 70.1563 14.7656 68.0469C17.7344 66.0157 19.5312 67.2657 21.0156 67.5782C27.0312 68.8282 31.1719 67.0313 35.4688 66.875C40.7812 66.7188 43.9844 69.4532 45.4688 70.9375C46.4062 71.9532 48.9844 72.6563 50.0781 70.1563C51.1719 72.6563 53.6719 71.875 54.6875 70.9375C56.1719 69.375 59.375 66.6407 64.6875 66.875C68.9844 67.0313 73.125 68.8282 79.1406 67.5782C80.5469 67.2657 82.3438 65.9375 85.3906 68.0469C88.3594 70.1563 97.8125 79.6875 97.8125 79.6875V45.3907C97.5 45.3907 91.9531 36.9532 91.0938 35.3907ZM63.2031 55.0782C56.6406 57.8907 49.8438 61.1719 49.8438 67.1875C49.8438 61.1719 43.0469 57.8907 36.4844 55.0782C29.9219 52.2657 28.5156 46.7969 28.75 43.9844C29.2969 34.2188 38.5938 35.1563 39.2188 35.1563C40.2344 35.2344 41.5625 35.8594 42.3438 37.0313C43.0469 38.2032 45.2344 40.625 46.3281 41.0157C49.0625 42.1875 49.9219 40.4688 49.9219 40.4688C49.9219 40.4688 50.7812 42.1875 53.5156 41.0157C54.6094 40.5469 56.7188 38.2032 57.5 37.0313C58.2031 35.8594 59.6094 35.2344 60.625 35.1563C61.25 35.0782 70.5469 34.2188 71.0938 43.9844C71.1719 46.7969 69.7656 52.3438 63.2031 55.0782Z" fill="#E0BB95"/>
<mask id="mask0_24_151" style="mask-type:luminance" maskUnits="userSpaceOnUse" x="2" y="15" width="96" height="65">
<path d="M91.0938 35.3907C90.2344 33.8282 88.75 31.0157 85.7812 29.0625C84.0625 27.9688 81.875 26.1719 80.9375 25.3125C80 24.4532 71.9531 17.9688 68.9844 16.7188C66.0156 15.4688 63.6719 15.3125 61.6406 16.3282C59.5312 17.4219 52.8125 20.7032 51.875 21.1719C50.9375 21.6407 49.9219 22.6563 49.9219 24.1407C49.9219 22.6563 48.9062 21.6407 47.9688 21.1719C47.0312 20.625 40.3125 17.4219 38.2031 16.3282C36.25 15.3125 33.8281 15.4688 30.8594 16.7188C27.8906 18.0469 19.8438 24.5313 18.9062 25.3125C17.9688 26.1719 15.7031 27.9688 14.0625 29.0625C11.0938 31.0157 9.60938 33.8282 8.75 35.3907C7.89062 36.9532 2.34375 45.3125 2.34375 45.3125V79.6875C2.34375 79.6875 11.7188 70.1563 14.7656 68.0469C17.7344 66.0157 19.5312 67.2657 21.0156 67.5782C27.0312 68.8282 31.1719 67.0313 35.4688 66.875C40.7812 66.7188 43.9844 69.4532 45.4688 70.9375C46.4062 71.9532 48.9844 72.6563 50.0781 70.1563C51.1719 72.6563 53.6719 71.875 54.6875 70.9375C56.1719 69.375 59.375 66.6407 64.6875 66.875C68.9844 67.0313 73.125 68.8282 79.1406 67.5782C80.5469 67.2657 82.3438 65.9375 85.3906 68.0469C88.3594 70.1563 97.8125 79.6875 97.8125 79.6875V45.3907C97.5 45.3907 91.9531 36.9532 91.0938 35.3907ZM63.2031 55.0782C56.6406 57.8907 49.8438 61.1719 49.8438 67.1875C49.8438 61.1719 43.0469 57.8907 36.4844 55.0782C29.9219 52.2657 28.5156 46.7969 28.75 43.9844C29.2969 34.2188 38.5938 35.1563 39.2188 35.1563C40.2344 35.2344 41.5625 35.8594 42.3438 37.0313C43.0469 38.2032 45.2344 40.625 46.3281 41.0157C49.0625 42.1875 49.9219 40.4688 49.9219 40.4688C49.9219 40.4688 50.7812 42.1875 53.5156 41.0157C54.6094 40.5469 56.7188 38.2032 57.5 37.0313C58.2031 35.8594 59.6094 35.2344 60.625 35.1563C61.25 35.0782 70.5469 34.2188 71.0938 43.9844C71.1719 46.7969 69.7656 52.3438 63.2031 55.0782Z" fill="white"/>
</mask>
<g mask="url(#mask0_24_151)">
<path d="M44.7656 69.9219C44.6094 71.25 39.9219 71.6406 39.9219 71.6406L1.32812 82.5781L1.48437 71.0937C4.21875 68.6719 10.8594 63.2812 12.0312 62.5781C13.2031 61.875 18.2812 59.375 22.7344 61.5625C23.9062 62.1094 26.4062 63.125 30.0781 62.7344C35.625 62.0312 45.4688 63.9062 44.7656 69.9219ZM43.4375 55.2344L49.8438 63.5156V67.5781C49.8438 67.5781 49.1406 67.5781 48.9844 66.875C48.125 62.2656 42.7344 59.0625 39.4531 57.6562L43.4375 55.2344ZM50.7031 18.5937L50.625 29.4531C50.625 29.4531 49.8438 30.3125 49.375 30.2344C48.9844 30.1562 48.4375 28.2812 47.8906 27.7344C47.3438 27.1875 41.1719 24.0625 39.2188 23.0469C37.6562 22.1875 35.3125 22.3438 34.4531 22.5781C33.5156 22.8125 27.1875 25.4688 26.1719 26.0938C25.1562 26.7188 24.4531 25.5469 25.3125 24.8437C25.7812 24.4531 30.9375 20.2344 31.6406 19.6875C32.3438 19.2188 31.7969 18.0469 30.7812 18.75C27.2656 21.0938 16.4062 29.4531 15.1562 30.3906C13.3594 31.7188 12.0312 33.3594 11.1719 35C10.7812 35.8594 4.76562 45.2344 1.95312 48.8281L0.9375 44.2187L9.76562 28.9062C9.76562 28.9062 33.3594 12.7344 33.5156 12.7344C33.5938 12.7344 50.7031 18.5937 50.7031 18.5937ZM54.9219 69.9219C55.0781 71.25 59.7656 71.6406 59.7656 71.6406L98.3594 82.5781L98.125 71.0937C95.3906 68.6719 88.75 63.2812 87.5781 62.5781C86.4062 61.875 81.3281 59.375 76.875 61.5625C75.7031 62.1094 73.2031 63.125 69.5312 62.7344C63.9844 62.0312 54.1406 63.9062 54.9219 69.9219Z" fill="#D19661"/>
<path d="M56.1719 55.2344L49.7656 63.5156L49.8438 67.5781C49.8438 67.5781 50.4688 67.5781 50.625 66.875C51.4844 62.2656 56.875 59.0625 60.1563 57.6563L56.1719 55.2344ZM48.9062 18.5938L48.9844 29.4531C48.9844 29.4531 49.7656 30.3125 50.2344 30.2344C50.625 30.1563 51.1719 28.2813 51.7187 27.7344C52.2656 27.1875 58.4375 24.0625 60.3906 23.0469C61.9531 22.1875 64.2969 22.3438 65.1563 22.5781C66.0938 22.8125 74.2969 26.6406 75.3125 27.2656C76.3281 27.8906 77.0312 26.6406 76.25 25.9375C75.7812 25.5469 70.7031 21.0156 70.0781 20.5469C69.4531 20.0781 70 19.1406 70.9375 19.7656C74.375 22.1094 83.2812 29.4531 84.5312 30.3906C86.3281 31.7188 87.6563 33.3594 88.5156 35C88.9063 35.8594 94.9219 45.2344 97.7344 48.8281L98.75 44.2188L89.9219 28.9062C89.9219 28.9062 66.3281 12.7344 66.1719 12.7344C66.0156 12.7344 48.9062 18.5938 48.9062 18.5938Z" fill="#D19661"/>
</g>
<mask id="mask1_24_151" style="mask-type:luminance" maskUnits="userSpaceOnUse" x="2" y="15" width="96" height="65">
<path d="M91.0938 35.3907C90.2344 33.8282 88.75 31.0157 85.7812 29.0625C84.0625 27.9688 81.875 26.1719 80.9375 25.3125C80 24.4532 71.9531 17.9688 68.9844 16.7188C66.0156 15.4688 63.6719 15.3125 61.6406 16.3282C59.5312 17.4219 52.8125 20.7032 51.875 21.1719C50.9375 21.6407 49.9219 22.6563 49.9219 24.1407C49.9219 22.6563 48.9062 21.6407 47.9688 21.1719C47.0312 20.625 40.3125 17.4219 38.2031 16.3282C36.25 15.3125 33.8281 15.4688 30.8594 16.7188C27.8906 18.0469 19.8438 24.5313 18.9062 25.3125C17.9688 26.1719 15.7031 27.9688 14.0625 29.0625C11.0938 31.0157 9.60938 33.8282 8.75 35.3907C7.89062 36.9532 2.34375 45.3125 2.34375 45.3125V79.6875C2.34375 79.6875 11.7188 70.1563 14.7656 68.0469C17.7344 66.0157 19.5312 67.2657 21.0156 67.5782C27.0312 68.8282 31.1719 67.0313 35.4688 66.875C40.7812 66.7188 43.9844 69.4532 45.4688 70.9375C46.4062 71.9532 48.9844 72.6563 50.0781 70.1563C51.1719 72.6563 53.6719 71.875 54.6875 70.9375C56.1719 69.375 59.375 66.6407 64.6875 66.875C68.9844 67.0313 73.125 68.8282 79.1406 67.5782C80.5469 67.2657 82.3438 65.9375 85.3906 68.0469C88.3594 70.1563 97.8125 79.6875 97.8125 79.6875V45.3907C97.5 45.3907 91.9531 36.9532 91.0938 35.3907ZM63.2031 55.0782C56.6406 57.8907 49.8438 61.1719 49.8438 67.1875C49.8438 61.1719 43.0469 57.8907 36.4844 55.0782C29.9219 52.2657 28.5156 46.7969 28.75 43.9844C29.2969 34.2188 38.5938 35.1563 39.2188 35.1563C40.2344 35.2344 41.5625 35.8594 42.3438 37.0313C43.0469 38.2032 45.2344 40.625 46.3281 41.0157C49.0625 42.1875 49.9219 40.4688 49.9219 40.4688C49.9219 40.4688 50.7812 42.1875 53.5156 41.0157C54.6094 40.5469 56.7188 38.2032 57.5 37.0313C58.2031 35.8594 59.6094 35.2344 60.625 35.1563C61.25 35.0782 70.5469 34.2188 71.0938 43.9844C71.1719 46.7969 69.7656 52.3438 63.2031 55.0782Z" fill="white"/>
</mask>
<g mask="url(#mask1_24_151)">
<path d="M16.1719 65.2344C15.9375 65 16.25 64.6094 16.5625 64.8438C17.6563 65.5469 20.7813 66.4844 24.5313 66.4063C30.4688 66.25 33.5938 64.9219 36.4063 65.1563C39.2188 65.3907 42.4219 66.4063 45.1563 69.4532C46.9532 71.5625 48.9063 70.7813 49.2969 69.4532C49.375 69.0625 49.8438 69.1407 49.8438 69.1407V71.0157C49.8438 71.0157 49.1407 72.5782 47.7344 72.6563C44.4532 72.7344 42.8125 71.25 41.6407 69.6094C40.3907 67.9688 26.875 70.1563 19.375 67.3438C18.2032 66.7969 17.0313 66.0938 16.1719 65.2344ZM48.3594 62.0313C48.0469 62.3438 47.7344 62.6563 47.0313 62.0313C44.0625 59.1407 40.7813 58.4375 35.7813 56.25C31.0157 54.1407 26.7188 50.0782 26.7188 43.9844C26.7188 39.6094 29.2188 32.8907 37.7344 33.0469C40.4688 33.125 42.1875 34.4532 43.0469 35.8594C43.9063 37.1875 45.3907 38.9063 45.8594 39.375C46.7188 40.1563 48.8282 40.7813 49.2188 38.9844C49.375 38.0469 48.8282 32.5782 48.75 31.6407C48.6719 30.7032 47.8907 28.75 46.25 27.8907C44.5313 26.9532 39.8438 24.5313 38.9063 24.0625C37.9688 23.5938 35.7032 23.3594 33.75 24.0625C31.25 25 22.0313 29.8438 20.3125 30.7032C20 30.8594 19.8438 30.5469 20.0782 30.3125C20.3125 30.0782 21.9532 28.2813 23.8282 27.1875C25.7032 26.0938 32.5782 22.2657 33.5938 21.7188C34.5313 21.1719 37.1875 20.9375 38.6719 21.7188C40.3125 22.5782 45.3907 25 47.5 26.1719C48.0469 26.4844 48.75 26.9532 48.9063 27.2657C49.0625 27.5782 49.2969 27.3438 49.2969 27.2657C49.2969 27.1875 49.375 24.1407 49.9219 24.1407V58.125L48.3594 62.0313ZM83.5938 65.2344C83.8282 65 83.5157 64.6094 83.2032 64.8438C82.1094 65.5469 78.9844 66.4844 75.2344 66.4063C69.2969 66.25 66.1719 64.9219 63.3594 65.1563C60.5469 65.3907 57.3438 66.4063 54.6094 69.4532C52.8125 71.5625 50.8594 70.7813 50.4688 69.4532C50.3907 69.0625 49.9219 69.1407 49.9219 69.1407V71.0157C49.9219 71.0157 50.625 72.5782 52.0313 72.6563C55.3125 72.7344 56.9532 71.25 58.125 69.6094C59.375 67.9688 72.8907 70.1563 80.3907 67.3438C81.4844 66.7969 82.7344 66.0938 83.5938 65.2344Z" fill="#8D542E"/>
<path d="M51.4063 62.0313C51.7188 62.3438 52.0312 62.6563 52.7344 62.0313C55.7031 59.1407 58.9844 58.4375 63.9844 56.25C68.75 54.1407 73.0469 50.0782 73.0469 43.9844C73.0469 39.6094 70.5469 32.8907 62.0313 33.0469C59.2969 33.125 57.5781 34.4532 56.7187 35.8594C55.8594 37.1875 54.375 38.9063 53.9062 39.375C53.0469 40.1563 50.9375 40.7813 50.5469 38.9844C50.3906 38.0469 50.9375 32.5782 51.0156 31.6407C51.0938 30.7032 51.875 28.75 53.5156 27.8907C55.2344 26.9532 59.9219 24.5313 60.8594 24.0625C61.7969 23.5938 64.0625 23.3594 66.0156 24.0625C68.5156 25 77.7344 29.8438 79.4531 30.7032C79.7656 30.8594 79.9219 30.5469 79.6875 30.3125C79.4531 30.0782 77.8125 28.2813 75.9375 27.1875C74.0625 26.0938 67.1875 22.2657 66.1719 21.7188C65.1562 21.1719 62.5781 20.9375 61.0937 21.7188C59.4531 22.5782 54.375 25 52.2656 26.1719C51.7188 26.4844 51.0156 26.9532 50.8594 27.2657C50.7031 27.5782 50.4687 27.3438 50.4687 27.2657C50.4687 27.1875 50.3906 24.1407 49.8437 24.1407C49.7656 24.8438 49.7656 25.4688 49.7656 25.4688L49.8437 58.125L51.4063 62.0313Z" fill="#8D542E"/>
</g>
</svg>
