<svg width="60" height="60" viewBox="0 0 60 60" fill="none" xmlns="http://www.w3.org/2000/svg">
<path d="M40.9922 40.6876C40.1578 39.7876 39.0656 38.6157 38.1094 37.6032C36.2531 35.6485 33.9844 34.186 33.9844 34.186L30.2109 38.236C30.2109 38.236 31.6781 40.936 33.5484 42.5438C34.4625 43.3313 35.6062 44.1329 36.5391 44.7517C36.3984 45.2157 36.2578 45.8204 36.1969 46.5423C36.0188 48.7829 36.3656 51.736 36.3797 52.0642C36.4359 53.7798 36.4547 55.0501 36.4547 55.0501L39.4266 55.0407L41.9016 44.0626C42.1734 42.8579 41.8359 41.5923 40.9922 40.6876Z" fill="url(#paint0_linear_41_394)"/>
<path d="M26.0109 34.186C26.0109 34.186 23.7422 35.6485 21.8906 37.6079C20.9344 38.6204 19.8422 39.7923 19.0078 40.6923C18.5929 41.1383 18.2932 41.6789 18.1347 42.267C17.9762 42.8552 17.9638 43.4732 18.0984 44.0673L20.5734 55.0454L23.5453 55.0548C23.5453 55.0548 23.5641 53.7845 23.6203 52.0688C23.6297 51.7407 23.9813 48.7876 23.8031 46.547C23.7469 45.8251 23.6016 45.2204 23.4609 44.7563C24.3938 44.1376 25.5375 43.336 26.4516 42.5485C28.3219 40.9407 29.7891 38.2407 29.7891 38.2407L26.0109 34.186Z" fill="url(#paint1_linear_41_394)"/>
<path d="M19.8235 52.064L20.5782 55.0405L23.55 55.0499L23.6157 52.064H19.8235Z" fill="#E0E0E0"/>
<path d="M24.5718 56.2219C24.5671 55.3219 23.7937 54.3 23.7937 54.3H20.1608L17.3577 55.2891C17.0046 55.4281 16.7014 55.6701 16.4874 55.9835C16.2734 56.2969 16.1586 56.6674 16.1577 57.0469V57.6469C16.1577 57.9094 16.3687 58.1251 16.6312 58.1251L24.0327 58.1016C24.3327 58.1016 24.5765 57.8579 24.5765 57.5532L24.5718 56.2219Z" fill="#2E4A3D"/>
<path d="M36.3796 52.064L36.4593 55.0499L39.4265 55.0405L40.1765 52.064H36.3796Z" fill="#E0E0E0"/>
<path d="M42.6423 55.2891L39.8438 54.3H36.211C36.211 54.3 35.4329 55.3219 35.4329 56.2266L35.4282 57.5579C35.4282 57.8579 35.672 58.1016 35.972 58.1063L43.3688 58.1251C43.6313 58.1251 43.8423 57.9141 43.8423 57.6469V57.0469C43.8423 56.2688 43.3642 55.575 42.6423 55.2891Z" fill="#2E4A3D"/>
<path d="M30.0843 8.27808C24.1734 8.27808 24.2202 13.7437 24.2202 13.8281C24.2202 17.3671 24.4921 22.3687 25.9077 24.3328C26.4702 25.1109 27.553 25.1578 27.553 25.1578L29.9999 25.1531L32.4468 25.1578C32.4468 25.1578 33.5343 25.1156 34.0921 24.3328C35.5077 22.364 35.7796 17.3671 35.7796 13.8281C35.7796 13.7437 35.9905 8.27808 30.0843 8.27808Z" fill="#AB872F"/>
<path d="M30.0843 8.27808C24.1734 8.27808 24.2202 13.7437 24.2202 13.8281C24.2202 17.3671 24.4921 22.3687 25.9077 24.3328C26.4702 25.1109 27.553 25.1578 27.553 25.1578L29.9999 25.1531L32.4468 25.1578C32.4468 25.1578 33.5343 25.1156 34.0921 24.3328C35.5077 22.364 35.7796 17.3671 35.7796 13.8281C35.7796 13.7437 35.9905 8.27808 30.0843 8.27808Z" fill="url(#paint2_radial_41_394)"/>
<path d="M45.1218 10.8376L42.9937 9.76416C41.2921 11.4329 40.4859 12.8626 39.7265 15.3517C38.1187 16.1157 36.7312 17.5173 35.8312 18.9657C34.875 20.2829 34.275 21.0142 33.5859 22.322C33.0656 23.3157 33.4406 24.422 34.3828 25.111C34.8281 25.4392 35.189 25.5798 35.5406 25.5798C35.9343 25.5798 36.3093 25.397 36.7687 25.0876C37.739 24.5345 39.0562 23.072 39.9 21.9845L39.8765 21.9704C40.95 20.6345 42.0328 18.7501 42.5718 16.9688C44.0812 15.3938 45.1218 13.3267 45.1218 10.8376Z" fill="url(#paint3_linear_41_394)"/>
<path d="M26.4141 22.3267C25.725 21.0188 25.125 20.2876 24.1688 18.9704C23.2688 17.522 21.8813 16.1204 20.2735 15.3563C19.5094 12.8579 18.7032 11.4329 17.0016 9.76416L14.8782 10.8423C14.8782 13.3313 15.9188 15.3938 17.4282 16.9735C17.9672 18.7501 19.0454 20.6392 20.1235 21.9751L20.1 21.9892C20.9438 23.0767 22.261 24.5392 23.2313 25.0923C23.6907 25.4017 24.0657 25.5845 24.4594 25.5845C24.811 25.5845 25.1719 25.4392 25.6172 25.1157C26.5547 24.4267 26.9344 23.3157 26.4141 22.3267Z" fill="url(#paint4_linear_41_394)"/>
<path d="M35.8313 18.9656C34.9923 20.1187 34.4298 20.8266 33.8392 21.8625C33.2626 21.7125 32.611 21.6281 31.8892 21.6281H28.0595C27.3517 21.6281 26.7188 21.7125 26.1563 21.8578C25.5657 20.8219 25.0032 20.1141 24.1642 18.9609L20.1001 21.9844C20.9438 23.0719 22.7626 25.0875 22.7626 25.0875C23.1517 26.9906 25.3923 34.5562 25.3923 34.5562H34.8938L37.3173 25.05C37.3173 25.05 39.0751 23.0437 39.9001 21.9891L35.8313 18.9656Z" fill="url(#paint5_linear_41_394)"/>
<path d="M28.3735 21.9562C28.3735 22.7343 29.0345 23.3671 29.8501 23.3671H30.1454C30.961 23.3671 31.622 22.7343 31.622 21.9562V20.2358H28.3735V21.9562Z" fill="#C48E6A"/>
<path d="M30 10.0405C27.5203 10.0405 25.2234 11.8827 25.2234 15.7921C25.2234 18.9327 27.1687 20.789 28.8609 21.389C29.264 21.5296 29.6531 21.6046 30 21.6046C30.3421 21.6046 30.7312 21.5343 31.1296 21.3937C32.8218 20.7983 34.7718 18.9374 34.7718 15.7968C34.7765 11.8827 32.4796 10.0405 30 10.0405Z" fill="#E0BB95"/>
<path d="M30.5579 17.5734L30.511 17.5593H29.4844C29.4704 17.5593 29.4516 17.564 29.4376 17.5734C29.3438 17.6109 29.2922 17.7093 29.3391 17.8125C29.3813 17.9156 29.5876 18.2015 30.0001 18.2015C30.4126 18.2015 30.6141 17.9156 30.661 17.8125C30.6708 17.7901 30.6759 17.7659 30.6759 17.7415C30.676 17.7171 30.671 17.6929 30.6614 17.6705C30.6517 17.6481 30.6375 17.6279 30.6197 17.6112C30.6019 17.5945 30.5809 17.5816 30.5579 17.5734Z" fill="#C48E6A"/>
<path d="M31.2187 18.7358C30.7547 19.0124 29.2406 19.0124 28.7812 18.7358C28.5141 18.5764 28.2422 18.8202 28.3547 19.0593C28.4625 19.2983 29.2922 19.8468 30.0047 19.8468C30.7172 19.8468 31.5375 19.2983 31.6453 19.0593C31.7531 18.8202 31.4859 18.5764 31.2187 18.7358Z" fill="#6D4C41"/>
<path d="M27.647 16.9593C28.0353 16.9593 28.3501 16.6319 28.3501 16.2281C28.3501 15.8242 28.0353 15.4968 27.647 15.4968C27.2586 15.4968 26.9438 15.8242 26.9438 16.2281C26.9438 16.6319 27.2586 16.9593 27.647 16.9593Z" fill="#5D4037"/>
<path d="M32.3533 16.9593C32.7416 16.9593 33.0564 16.6319 33.0564 16.2281C33.0564 15.8242 32.7416 15.4968 32.3533 15.4968C31.9649 15.4968 31.6501 15.8242 31.6501 16.2281C31.6501 16.6319 31.9649 16.9593 32.3533 16.9593Z" fill="#5D4037"/>
<path d="M28.6921 14.9157C28.5561 14.7375 28.2468 14.4797 27.6468 14.4797C27.0421 14.4797 26.7327 14.7375 26.6015 14.9157C26.5405 14.9954 26.5593 15.0844 26.5968 15.1407C26.6343 15.1922 26.7468 15.2391 26.8733 15.1969C26.9999 15.1547 27.239 15.0282 27.6468 15.0235C28.0546 15.0282 28.2983 15.15 28.4202 15.1969C28.5468 15.2391 28.6593 15.1922 28.6968 15.1407C28.7212 15.108 28.734 15.0681 28.7331 15.0274C28.7323 14.9866 28.7178 14.9473 28.6921 14.9157ZM33.3983 14.9157C33.2624 14.7375 32.953 14.4797 32.353 14.4797C31.7483 14.4797 31.439 14.7375 31.3077 14.9157C31.2468 14.9954 31.2655 15.0844 31.303 15.1407C31.3405 15.1922 31.453 15.2391 31.5796 15.1969C31.7061 15.1547 31.9452 15.0282 32.353 15.0235C32.7608 15.0282 33.0046 15.15 33.1265 15.1969C33.253 15.2391 33.3655 15.1922 33.403 15.1407C33.4274 15.108 33.4402 15.0681 33.4394 15.0274C33.4386 14.9866 33.4241 14.9473 33.3983 14.9157Z" fill="#AB872F"/>
<path d="M30.0843 8.27808C24.1734 8.27808 24.2202 13.7437 24.2202 13.8281C24.2202 14.9484 24.2484 16.2093 24.328 17.4796L25.2937 17.475C25.2843 17.0531 25.5796 14.4515 26.4609 14.2546C29.6812 13.5281 31.5046 11.8218 31.5046 11.8218C31.978 12.8578 33.4593 13.8656 33.9937 14.25C34.4296 14.564 34.5655 16.9218 34.5562 17.475H35.6671C35.6671 17.4656 35.6718 17.4609 35.6718 17.4515C35.7515 16.1906 35.7796 14.9343 35.7796 13.8234C35.7843 13.7437 35.9952 8.27808 30.0843 8.27808Z" fill="#AB872F"/>
<path d="M30.0843 8.27808C24.1734 8.27808 24.2202 13.7437 24.2202 13.8281C24.2202 14.9484 24.2484 16.2093 24.328 17.4796L25.2937 17.475C25.2843 17.0531 25.5796 14.4515 26.4609 14.2546C29.6812 13.5281 31.5046 11.8218 31.5046 11.8218C31.978 12.8578 33.4593 13.8656 33.9937 14.25C34.4296 14.564 34.5655 16.9218 34.5562 17.475H35.6671C35.6671 17.4656 35.6718 17.4609 35.6718 17.4515C35.7515 16.1906 35.7796 14.9343 35.7796 13.8234C35.7843 13.7437 35.9952 8.27808 30.0843 8.27808Z" fill="url(#paint6_radial_41_394)"/>
<path d="M18.8719 8.0437C18.45 7.79526 16.4485 7.4812 15.0656 7.4812C14.3063 7.4812 13.7391 7.57964 13.7391 7.83745L13.7344 9.44526C13.7297 11.0625 14.7844 12.3843 16.5281 12.389H16.5328C19.6922 12.389 19.9406 8.66714 18.8719 8.0437Z" fill="url(#paint7_radial_41_394)"/>
<path d="M18.7593 9.75941C18.7406 9.82035 18.5765 9.88129 18.3984 9.92816H18.3937C18.1875 9.97972 17.9437 10.0829 17.489 10.2094C16.8562 10.3875 16.8046 11.236 16.8046 11.236C16.6875 10.7953 16.9875 10.0219 17.4046 9.84379V9.8391C17.6015 9.74535 17.8218 9.69379 18.0562 9.65629C18.0937 9.6516 18.1875 9.64691 18.3046 9.6516H18.3093C18.5203 9.65629 18.7828 9.68441 18.7593 9.75941Z" fill="#BA8F63"/>
<path d="M58.125 8.67188C58.125 9.31875 57.7828 9.84375 57.3563 9.84375H2.64375C2.22187 9.84375 1.875 9.31875 1.875 8.67188C1.875 8.025 2.22187 7.5 2.64375 7.5H57.3516C57.7781 7.5 58.125 8.025 58.125 8.67188Z" fill="url(#paint8_linear_41_394)"/>
<path d="M9.80615 15.4641C11.3577 15.4641 12.6187 14.2032 12.6187 12.6516V4.75317C12.6187 3.20161 11.3577 1.94067 9.80615 1.94067C8.25459 1.94067 6.99365 3.20161 6.99365 4.75317V12.6516C6.99365 14.2032 8.2499 15.4641 9.80615 15.4641Z" fill="url(#paint9_radial_41_394)"/>
<path d="M50.1938 15.4641C48.6423 15.4641 47.3813 14.2032 47.3813 12.6516V4.75317C47.3813 3.20161 48.6423 1.94067 50.1938 1.94067C51.7454 1.94067 53.0063 3.20161 53.0063 4.75317V12.6516C53.0063 14.2032 51.7501 15.4641 50.1938 15.4641Z" fill="url(#paint10_radial_41_394)"/>
<path d="M4.6875 12.7593C5.72344 12.7593 6.5625 11.9203 6.5625 10.8843V6.52026C6.5625 5.48433 5.72344 4.64526 4.6875 4.64526C3.65156 4.64526 2.8125 5.48433 2.8125 6.52026V10.8843C2.8125 11.9203 3.65156 12.7593 4.6875 12.7593Z" fill="url(#paint11_radial_41_394)"/>
<path d="M55.3125 12.7593C54.2766 12.7593 53.4375 11.9203 53.4375 10.8843V6.52026C53.4375 5.48433 54.2766 4.64526 55.3125 4.64526C56.3484 4.64526 57.1875 5.48433 57.1875 6.52026V10.8843C57.1875 11.9203 56.3484 12.7593 55.3125 12.7593Z" fill="url(#paint12_radial_41_394)"/>
<path d="M18.0985 9.84375H13.7251L13.3501 7.5H18.0985V9.84375Z" fill="#646464"/>
<path d="M19.3219 7.04992L19.186 7.77648L19.1579 7.93586L19.0922 8.28742L19.0547 8.49367C19.0115 8.72189 18.8798 8.92379 18.6885 9.05546C18.4971 9.18714 18.2615 9.23793 18.0329 9.19679C17.8172 9.15929 17.6344 9.04679 17.5079 8.87804C17.3532 9.01867 17.1516 9.09836 16.9313 9.09836C16.8 9.09836 16.3875 8.91554 16.3172 8.84523C16.2976 8.82709 16.2803 8.80663 16.2657 8.78429C16.2469 8.79836 16.2282 8.81711 16.2094 8.83117C16.2 8.83586 15.9329 8.99523 15.661 8.99054C15.4079 8.98586 15.1547 8.83117 15.0797 8.75617C15.0047 8.86398 14.9016 8.95773 14.7797 9.02336C14.6954 9.07492 14.6016 9.10773 14.4985 9.12179C14.4516 9.13117 14.4047 9.13586 14.3579 9.13586C14.1704 9.13586 13.9875 9.07492 13.8375 8.96242C13.6407 8.82179 13.5141 8.61554 13.4813 8.38117L13.4204 7.98273V7.97804L13.3407 7.46711C13.3032 7.23273 13.3594 6.99836 13.5 6.80617C13.6407 6.60929 13.8469 6.48273 14.0813 6.44992C14.1375 6.44054 14.1938 6.43586 14.25 6.44054C14.2641 6.44054 14.2829 6.44054 14.2969 6.44523C14.4469 6.45461 14.5969 6.50617 14.7282 6.59992C14.7469 6.61398 14.761 6.62804 14.775 6.63742C14.8032 6.52961 14.8594 6.42648 14.9297 6.34211C14.9485 6.31398 14.9672 6.29054 14.9907 6.26711C15.0188 6.23429 15.0422 6.22023 15.0516 6.21086C15.0563 6.21086 15.0563 6.20617 15.0563 6.20617C15.1969 6.08429 15.3797 6.00929 15.5813 5.99992C15.6469 5.99523 15.7125 5.99992 15.7735 6.00929C15.8204 6.01867 15.8625 6.03273 15.9047 6.04679C16.0266 6.08429 16.1344 6.14523 16.2282 6.22961C16.2563 6.19211 16.2891 6.15461 16.3219 6.12179C16.3688 6.07492 16.4204 6.03273 16.4719 5.99992C16.5 5.98117 16.5329 5.96711 16.561 5.94836C16.6782 5.89211 16.8094 5.86398 16.9454 5.86867C17.0954 5.86867 17.2407 5.90617 17.3719 5.98117C17.3954 5.99054 17.4141 6.00461 17.4329 6.01867C17.4797 6.05148 17.5219 6.08898 17.5641 6.13117C17.6391 6.20617 17.7 6.29523 17.7422 6.38898C17.7985 6.30461 17.8735 6.22492 17.9625 6.16398C17.9813 6.14992 18.0047 6.13586 18.0282 6.12648C18.1219 6.07492 18.2204 6.03742 18.3235 6.02336C18.4219 6.00929 18.5204 6.00929 18.6188 6.02804C18.8532 6.07023 19.05 6.20148 19.186 6.39367C19.3172 6.59054 19.3641 6.82023 19.3219 7.04992Z" fill="url(#paint13_linear_41_394)"/>
<path d="M35.3672 34.7437L35.0391 33.825H25.2094L25.0312 34.7625L20.8125 38.4703L25.5187 43.3593C25.5187 43.3593 28.7016 40.7015 28.9875 40.4484C29.3016 40.1671 29.6812 40.1343 29.9109 40.1296C30.1406 40.1343 30.5203 40.1671 30.8344 40.4484C31.1203 40.7062 34.3031 43.3593 34.3031 43.3593L39.1875 38.4703L35.3672 34.7437Z" fill="#7C7C7C"/>
<path d="M19.2327 7.5563C19.0687 7.97817 18.178 7.57505 17.8405 7.40161C17.789 6.98911 17.7374 6.71724 17.7374 6.71724V6.72192C17.7515 6.9563 17.5171 7.12505 17.2968 7.04067C17.0483 6.94224 16.7624 6.86255 16.5562 6.87192C16.4765 6.87661 16.4108 6.89067 16.3499 6.90942C16.2937 6.72661 16.2608 6.60474 16.2608 6.60474V6.6563C16.2515 6.81567 16.1765 6.96567 16.0452 7.05474C15.5343 7.38755 15.403 8.01567 16.0077 8.68599C15.8015 8.82661 15.478 8.81724 15.2952 8.62974C15.0608 8.39536 14.9624 7.65005 14.8265 7.09692C14.8687 7.49067 14.9858 8.1938 14.9296 8.46567C14.8593 8.7938 14.5312 9.00005 14.203 8.92036C13.9171 8.85005 13.5796 8.62036 13.4155 7.98755L13.4765 8.38599C13.5093 8.62036 13.6358 8.82661 13.8327 8.96724C13.9827 9.07974 14.1655 9.14067 14.353 9.14067C14.3999 9.14067 14.4468 9.13599 14.4937 9.12661C14.5827 9.11255 14.6624 9.08442 14.7374 9.04692C14.7421 9.04224 14.7515 9.04224 14.7562 9.03755C14.7608 9.03286 14.7702 9.03286 14.7749 9.02817C14.9718 8.92036 15.0702 8.77036 15.0749 8.76099C15.0983 8.79849 15.3421 9.00005 15.6374 9.00005C16.0452 9.00005 16.2046 8.83599 16.2046 8.83599C16.2421 8.85942 16.2796 8.87817 16.3171 8.89224C16.3452 8.90161 17.4421 9.27192 17.3999 9.68911C17.3952 9.74067 17.3999 9.79224 17.4046 9.8438V9.86724C17.4187 9.98911 17.4468 10.1063 17.489 10.2141L17.4937 10.2094C17.6062 10.1204 17.878 10.1954 17.9015 10.036C17.9905 9.4313 17.9671 8.70942 17.9108 8.09067L19.0921 8.28755L19.2327 7.5563Z" fill="#BA8F63"/>
<path d="M19.4579 9.08426C19.2282 7.82332 17.7048 7.29832 17.1329 7.09676C17.0626 7.07332 16.0173 6.82488 15.8907 7.75301C15.8345 8.15613 16.1392 8.59676 16.5282 8.74676C17.5923 9.15457 17.5876 9.37957 17.5876 9.52957C17.5829 9.91863 17.7986 10.6546 18.1361 10.8749C18.2064 10.9218 18.2861 10.9499 18.3611 10.9499C18.4079 10.9499 18.4548 10.9405 18.5017 10.9218C19.1626 10.6452 19.5892 9.82019 19.4579 9.08426Z" fill="url(#paint14_linear_41_394)"/>
<path d="M41.1844 8.0437C41.6063 7.79526 43.6078 7.4812 44.9906 7.4812C45.75 7.4812 46.3172 7.57964 46.3172 7.83745L46.3219 9.44526C46.3266 11.0625 45.2719 12.3843 43.5281 12.389H43.5235C40.3641 12.389 40.111 8.66714 41.1844 8.0437Z" fill="url(#paint15_radial_41_394)"/>
<path d="M41.2969 9.75941C41.3156 9.82035 41.4797 9.88129 41.6578 9.92816H41.6625C41.8687 9.97972 42.1125 10.0829 42.5672 10.2094C43.2 10.3875 43.2516 11.236 43.2516 11.236C43.3687 10.7953 43.0687 10.0219 42.6516 9.84379V9.8391C42.4547 9.74535 42.2344 9.69379 42 9.65629C41.9625 9.6516 41.8688 9.64691 41.7516 9.6516H41.7469C41.5359 9.65629 41.2734 9.68441 41.2969 9.75941Z" fill="#BA8F63"/>
<path d="M41.9578 7.5H46.7062L46.3312 9.84375H41.9578V7.5Z" fill="#646464"/>
<path d="M40.7343 7.04992L40.8702 7.77648L40.8984 7.93586L40.964 8.28742L41.0015 8.49367C41.0448 8.72189 41.1764 8.92379 41.3678 9.05546C41.5591 9.18714 41.7947 9.23793 42.0234 9.19679C42.239 9.15929 42.4218 9.04679 42.5483 8.87804C42.703 9.01867 42.9046 9.09836 43.1249 9.09836C43.2562 9.09836 43.6687 8.91554 43.739 8.84523C43.7577 8.82648 43.7765 8.80773 43.7905 8.78429C43.8093 8.79836 43.828 8.81711 43.8468 8.83117C43.8562 8.83586 44.1234 8.99523 44.3952 8.99054C44.6484 8.98586 44.8968 8.83117 44.9765 8.75617C45.0515 8.86398 45.1546 8.95773 45.2765 9.02336C45.3608 9.07492 45.4546 9.10773 45.5577 9.12179C45.6046 9.13117 45.6515 9.13586 45.6983 9.13586C45.8858 9.13586 46.0687 9.07492 46.2187 8.96242C46.4155 8.82179 46.5421 8.61554 46.5749 8.38117L46.6358 7.98273V7.97804L46.7155 7.46711C46.753 7.23273 46.6968 6.99836 46.5562 6.80617C46.4155 6.60929 46.2093 6.48273 45.9749 6.44992C45.9187 6.44054 45.8624 6.43586 45.8062 6.44054C45.7921 6.44054 45.7734 6.44054 45.7593 6.44523C45.6093 6.45461 45.4593 6.50617 45.328 6.59992C45.3093 6.61398 45.2952 6.62804 45.2812 6.63742C45.253 6.52961 45.1968 6.42648 45.1265 6.34211C45.1088 6.31507 45.0884 6.28994 45.0655 6.26711C45.0374 6.23429 45.014 6.22023 45.0046 6.21086C44.9999 6.21086 44.9999 6.20617 44.9999 6.20617C44.8593 6.08429 44.6765 6.00929 44.4749 5.99992C44.4093 5.99523 44.3437 5.99992 44.2827 6.00929C44.2359 6.01867 44.1937 6.03273 44.1515 6.04679C44.0296 6.08429 43.9218 6.14523 43.828 6.22961C43.7999 6.19211 43.7671 6.15461 43.7343 6.12179C43.6874 6.07492 43.6359 6.03273 43.5843 5.99992C43.5562 5.98117 43.5234 5.96711 43.4952 5.94836C43.378 5.89211 43.2468 5.86398 43.1109 5.86867C42.9609 5.86867 42.8155 5.90617 42.6843 5.98117C42.6608 5.99054 42.6421 6.00461 42.6234 6.01867C42.5765 6.05148 42.5343 6.08898 42.4921 6.13117C42.4171 6.20617 42.3562 6.29523 42.314 6.38898C42.2577 6.30461 42.1827 6.22492 42.0937 6.16398C42.0736 6.14858 42.0515 6.13597 42.028 6.12648C41.9343 6.07492 41.8358 6.03742 41.7327 6.02336C41.6343 6.00929 41.5359 6.00929 41.4374 6.02804C41.203 6.07023 41.0062 6.20148 40.8702 6.39367C40.739 6.59054 40.6921 6.82023 40.7343 7.04992Z" fill="url(#paint16_linear_41_394)"/>
<path d="M40.8235 7.5563C40.9875 7.97817 41.8782 7.57505 42.2157 7.40161C42.2672 6.98911 42.3188 6.71724 42.3188 6.71724V6.72192C42.3047 6.9563 42.5391 7.12505 42.7594 7.04067C43.0079 6.94224 43.2938 6.86255 43.5001 6.87192C43.5797 6.87661 43.6454 6.89067 43.7063 6.90942C43.7625 6.72661 43.7954 6.60474 43.7954 6.60474V6.6563C43.8047 6.81567 43.8797 6.96567 44.011 7.05474C44.5219 7.38755 44.6532 8.01567 44.0485 8.68599C44.2547 8.82661 44.5782 8.81724 44.761 8.62974C44.9954 8.39536 45.0938 7.65005 45.2297 7.09692C45.1875 7.49067 45.0704 8.1938 45.1266 8.46567C45.1922 8.7938 45.5251 9.00005 45.8532 8.92036C46.1391 8.85005 46.4766 8.62036 46.6407 7.98755L46.5797 8.38599C46.5469 8.62036 46.4204 8.82661 46.2235 8.96724C46.0735 9.07974 45.8907 9.14067 45.7032 9.14067C45.6563 9.14067 45.6094 9.13599 45.5625 9.12661C45.4735 9.11255 45.3938 9.08442 45.3188 9.04692C45.3141 9.04224 45.3047 9.04224 45.3001 9.03755C45.2954 9.03286 45.286 9.03286 45.2813 9.02817C45.1612 8.96456 45.0583 8.8729 44.9813 8.76099C44.9579 8.79849 44.7141 9.00005 44.4188 9.00005C44.011 9.00005 43.8516 8.83599 43.8516 8.83599C43.8141 8.85942 43.7766 8.87817 43.7391 8.89224C43.7063 8.90161 42.6188 9.27192 42.6563 9.68911C42.661 9.74067 42.6563 9.79224 42.6516 9.8438V9.86724C42.6375 9.98911 42.6094 10.1063 42.5672 10.2141L42.5626 10.2094C42.4501 10.1204 42.1782 10.1954 42.1547 10.036C42.0657 9.4313 42.0891 8.70942 42.1454 8.09067L40.9641 8.28755L40.8235 7.5563Z" fill="#BA8F63"/>
<path d="M40.5984 9.08426C40.8281 7.82332 42.3515 7.29832 42.9234 7.09676C42.9937 7.07332 44.039 6.82488 44.1656 7.75301C44.2219 8.15613 43.9172 8.59676 43.5281 8.74676C42.464 9.15457 42.4687 9.37957 42.4687 9.52957C42.4734 9.91863 42.2578 10.6546 41.9203 10.8749C41.85 10.9218 41.7703 10.9499 41.6953 10.9499C41.6484 10.9499 41.6015 10.9405 41.5547 10.9218C40.8937 10.6452 40.4672 9.82019 40.5984 9.08426Z" fill="url(#paint17_linear_41_394)"/>
<defs>
<linearGradient id="paint0_linear_41_394" x1="36.1022" y1="34.3965" x2="36.1022" y2="52.3623" gradientUnits="userSpaceOnUse">
<stop stop-color="#CCA47A"/>
<stop offset="0.5" stop-color="#E0BB95"/>
</linearGradient>
<linearGradient id="paint1_linear_41_394" x1="23.8978" y1="34.3965" x2="23.8978" y2="52.3623" gradientUnits="userSpaceOnUse">
<stop stop-color="#CCA47A"/>
<stop offset="0.5" stop-color="#E0BB95"/>
</linearGradient>
<radialGradient id="paint2_radial_41_394" cx="0" cy="0" r="1" gradientUnits="userSpaceOnUse" gradientTransform="translate(29.9999 16.2846) scale(6.84984 8.152)">
<stop offset="0.794" stop-color="#BFA055" stop-opacity="0"/>
<stop offset="1" stop-color="#BFA055"/>
</radialGradient>
<linearGradient id="paint3_linear_41_394" x1="37.8145" y1="20.4638" x2="43.8318" y2="10.6093" gradientUnits="userSpaceOnUse">
<stop stop-color="#CCA47A"/>
<stop offset="0.5" stop-color="#E0BB95"/>
</linearGradient>
<linearGradient id="paint4_linear_41_394" x1="22.1236" y1="20.3799" x2="16.0627" y2="10.6562" gradientUnits="userSpaceOnUse">
<stop stop-color="#CCA47A"/>
<stop offset="0.5" stop-color="#E0BB95"/>
</linearGradient>
<linearGradient id="paint5_linear_41_394" x1="30.0001" y1="21.6202" x2="30.0001" y2="33.5719" gradientUnits="userSpaceOnUse">
<stop stop-color="#2E4A3D"/>
<stop offset="0.705" stop-color="#2E4A3D"/>
<stop offset="1" stop-color="#2E4A3D"/>
</linearGradient>
<radialGradient id="paint6_radial_41_394" cx="0" cy="0" r="1" gradientUnits="userSpaceOnUse" gradientTransform="translate(30.051 16.8667) scale(7.17516 8.70705)">
<stop offset="0.794" stop-color="#BFA055" stop-opacity="0"/>
<stop offset="1" stop-color="#BFA055"/>
</radialGradient>
<radialGradient id="paint7_radial_41_394" cx="0" cy="0" r="1" gradientUnits="userSpaceOnUse" gradientTransform="translate(16.5891 9.93651) scale(2.66109)">
<stop stop-color="#CCA47A"/>
<stop offset="0.5" stop-color="#E0BB95"/>
</radialGradient>
<linearGradient id="paint8_linear_41_394" x1="30" y1="7.20891" x2="30" y2="10.0486" gradientUnits="userSpaceOnUse">
<stop stop-color="#BDBDBD"/>
<stop offset="1" stop-color="#757575"/>
</linearGradient>
<radialGradient id="paint9_radial_41_394" cx="0" cy="0" r="1" gradientUnits="userSpaceOnUse" gradientTransform="translate(9.78156 4.06936) rotate(90) scale(10.2901 5.78645)">
<stop offset="0.396" stop-color="#9E9E9E"/>
<stop offset="0.79" stop-color="#646464"/>
</radialGradient>
<radialGradient id="paint10_radial_41_394" cx="0" cy="0" r="1" gradientUnits="userSpaceOnUse" gradientTransform="translate(50.2195 4.10992) rotate(90) scale(10.2901 5.78645)">
<stop offset="0.396" stop-color="#9E9E9E"/>
<stop offset="0.79" stop-color="#646464"/>
</radialGradient>
<radialGradient id="paint11_radial_41_394" cx="0" cy="0" r="1" gradientUnits="userSpaceOnUse" gradientTransform="translate(4.7916 6.02491) scale(2.21432 3.83009)">
<stop offset="0.441" stop-color="#9E9E9E"/>
<stop offset="0.985" stop-color="#646464"/>
</radialGradient>
<radialGradient id="paint12_radial_41_394" cx="0" cy="0" r="1" gradientUnits="userSpaceOnUse" gradientTransform="translate(55.1684 6.02491) rotate(180) scale(2.21432 3.83009)">
<stop offset="0.441" stop-color="#9E9E9E"/>
<stop offset="0.985" stop-color="#646464"/>
</radialGradient>
<linearGradient id="paint13_linear_41_394" x1="16.3116" y1="7.79336" x2="16.3608" y2="6.23992" gradientUnits="userSpaceOnUse">
<stop stop-color="#CCA47A"/>
<stop offset="0.5" stop-color="#E0BB95"/>
</linearGradient>
<linearGradient id="paint14_linear_41_394" x1="16.4101" y1="9.53051" x2="18.894" y2="8.28691" gradientUnits="userSpaceOnUse">
<stop stop-color="#CCA47A"/>
<stop offset="0.469" stop-color="#E0BB95"/>
</linearGradient>
<radialGradient id="paint15_radial_41_394" cx="0" cy="0" r="1" gradientUnits="userSpaceOnUse" gradientTransform="translate(43.4672 9.93651) rotate(180) scale(2.66109)">
<stop stop-color="#CCA47A"/>
<stop offset="0.5" stop-color="#E0BB95"/>
</radialGradient>
<linearGradient id="paint16_linear_41_394" x1="43.7446" y1="7.79336" x2="43.6954" y2="6.23992" gradientUnits="userSpaceOnUse">
<stop stop-color="#CCA47A"/>
<stop offset="0.5" stop-color="#E0BB95"/>
</linearGradient>
<linearGradient id="paint17_linear_41_394" x1="43.6462" y1="9.53051" x2="41.1623" y2="8.28691" gradientUnits="userSpaceOnUse">
<stop stop-color="#CCA47A"/>
<stop offset="0.469" stop-color="#E0BB95"/>
</linearGradient>
</defs>
</svg>
