<svg width="60" height="54" viewBox="0 0 60 54" fill="none" xmlns="http://www.w3.org/2000/svg">
<path fill-rule="evenodd" clip-rule="evenodd" d="M18.6563 9.04008C19.2286 9.14476 19.6076 9.69389 19.503 10.2666L11.674 53.1352C11.5694 53.7079 11.0207 54.0873 10.4485 53.9826C9.87629 53.8779 9.49721 53.3288 9.6018 52.7561L17.4309 9.8875C17.5355 9.3148 18.0841 8.9354 18.6563 9.04008Z" fill="currentColor"/>
<path fill-rule="evenodd" clip-rule="evenodd" d="M44.0261 7.86738e-05C45.1815 -0.00661362 46.464 0.412447 46.9728 1.71744C47.4367 2.90704 46.751 3.97324 46.0816 4.67188C45.3649 5.41979 44.3226 6.12681 43.2106 6.7587C41.1768 7.91449 38.6758 8.9484 36.8098 9.61582C36.3534 11.8477 36.0372 16.6418 37.8776 21.2838C38.5965 23.0968 39.3371 24.9132 40.0543 26.6719C40.669 28.1794 41.2664 29.6445 41.8179 31.0286C41.9851 31.4483 42.1467 31.8573 42.3015 32.2534C43.7787 31.8025 45.2335 31.4212 46.6312 31.1028C49.5407 30.4401 52.2285 30.0445 54.3943 29.8662C56.5068 29.6922 58.2591 29.712 59.2157 29.9651C59.7781 30.1139 60.1134 30.6909 59.9648 31.2537C59.8161 31.8166 59.2397 32.1522 58.6773 32.0034C58.1067 31.8524 56.6818 31.7932 54.567 31.9673C52.5056 32.1371 49.9163 32.5167 47.0987 33.1585C45.7848 33.4578 44.4267 33.8129 43.0538 34.2281C43.145 34.476 43.2314 34.7149 43.3124 34.9441C43.6953 36.0264 43.9882 36.9695 44.0842 37.6096C44.0899 37.6476 44.0957 37.6863 44.1016 37.7258C44.4266 39.8866 45.0867 44.2762 42.5617 48.8846C41.4282 50.9534 39.4306 52.0982 37.5366 52.7087C35.6383 53.3206 33.7084 53.4425 32.4792 53.3653L32.4572 53.3639L32.4353 53.3616C31.0816 53.2193 29.5716 52.7887 28.2116 52.0958C26.8588 51.4066 25.5754 50.4168 24.7778 49.1062C23.9562 47.7562 23.6898 46.1237 24.314 44.3206C24.9216 42.5653 26.344 40.7264 28.7249 38.8073L28.74 38.7952L28.7555 38.7836C32.1965 36.2124 36.2702 34.2953 40.2945 32.9055C40.1557 32.5514 40.011 32.1856 39.8612 31.8096C39.3384 30.4974 38.739 29.0268 38.1179 27.5031C37.3852 25.7053 36.6223 23.8336 35.9197 22.0615C34.1133 17.5055 34.1813 12.854 34.5905 10.0875L1.21685 15.335C0.642211 15.4254 0.10319 15.0324 0.0129138 14.4572C-0.0773621 13.8821 0.315293 13.3426 0.889934 13.2523L34.99 7.89053C35.6226 4.7223 37.9611 2.36352 40.2647 1.1051C41.5177 0.420641 42.8549 0.00686246 44.0261 7.86738e-05ZM37.405 7.14153C38.1458 5.30016 39.6617 3.83641 41.2739 2.95569C42.3205 2.38395 43.3137 2.11253 44.0383 2.10834C44.7787 2.10405 44.9576 2.34822 45.0105 2.48389C45.0142 2.49342 45.0152 2.49921 45.0149 2.50965C45.0145 2.52293 45.011 2.55758 44.9875 2.61821C44.9367 2.74974 44.8128 2.9501 44.5612 3.2126C44.0562 3.7397 43.2233 4.32708 42.1706 4.92532C40.7073 5.75685 38.9539 6.53483 37.405 7.14153ZM41.0473 34.8759C37.165 36.2111 33.2768 38.0397 30.0312 40.4614C27.8231 42.2442 26.7318 43.7759 26.3044 45.0108C25.8925 46.2006 26.0716 47.1793 26.5768 48.0094C27.1059 48.8788 28.0307 49.6379 29.1672 50.2169C30.2891 50.7885 31.5404 51.1446 32.6333 51.2625C33.6415 51.3229 35.2907 51.2177 36.8909 50.7019C38.5072 50.1809 39.9384 49.2878 40.7148 47.8708C42.8961 43.8896 42.3276 40.0993 42.0106 37.9863L42.001 37.9223C41.9389 37.5083 41.714 36.7427 41.3267 35.6476C41.24 35.4026 41.1467 35.145 41.0473 34.8759Z" fill="currentColor"/>
</svg>
