<svg width="61" height="61" viewBox="0 0 61 61" fill="none" xmlns="http://www.w3.org/2000/svg">
<path d="M57.0381 16.8569C54.5396 13.7913 45.774 8.1897 30.5818 8.1897C15.3896 8.1897 6.62401 13.7913 4.12558 16.8569C1.62714 19.9225 1.50527 23.4897 1.62714 26.0256C1.63183 26.1663 1.65527 26.3772 1.69745 26.6209C1.99277 28.3131 2.5037 29.5272 9.4412 29.5272C16.8428 29.5272 17.6631 27.7038 17.71 26.3678C17.785 24.1928 18.0428 21.31 19.0224 20.7006C20.1803 19.9881 21.1693 17.4522 30.5865 17.3069C40.0037 17.4569 40.9928 19.9881 42.1506 20.7006C43.1349 21.31 43.3881 24.1881 43.4631 26.3678C43.5099 27.7038 44.3303 29.5272 51.7318 29.5272C58.6646 29.5272 59.1803 28.3084 59.4756 26.6209C59.5178 26.3772 59.5365 26.1663 59.5459 26.0256C59.6584 23.4897 59.5412 19.9272 57.0381 16.8569Z" fill="#C62828"/>
<path d="M51.7271 31.4069C47.2974 31.4069 42.1927 30.8913 42.0568 26.8881C42.0499 26.7037 42.0795 26.5197 42.144 26.3467C42.2084 26.1737 42.3063 26.0151 42.4322 25.8801C42.5581 25.7451 42.7094 25.6362 42.8775 25.5599C43.0455 25.4835 43.227 25.4411 43.4115 25.435C43.7834 25.4236 44.1447 25.5595 44.4169 25.8133C44.689 26.067 44.85 26.4179 44.8646 26.7897C44.8834 27.3334 45.5912 28.5944 51.7271 28.5944C59.0068 28.5944 59.5693 25.7444 59.5693 25.7444C60.0334 26.8881 61.1068 30.9991 51.7271 31.4069ZM9.43181 30.9381C13.8615 30.9381 18.9662 30.4225 19.1021 26.4194C19.109 26.2349 19.0794 26.0509 19.015 25.8779C18.9505 25.7049 18.8526 25.5464 18.7267 25.4113C18.6008 25.2763 18.4495 25.1675 18.2815 25.0911C18.1134 25.0147 17.9319 24.9723 17.7474 24.9663C17.3755 24.9548 17.0142 25.0908 16.742 25.3445C16.4699 25.5982 16.309 25.9492 16.2943 26.3209C16.2756 26.8647 15.5677 28.1256 9.43181 28.1256C2.15212 28.1256 1.58962 25.2756 1.58962 25.2756C1.13962 26.3163 0.0521209 30.5303 9.43181 30.9381ZM46.5381 14.7006C44.0724 13.6788 39.1365 12.2913 30.5818 12.2913C22.0271 12.2913 17.0959 13.6788 14.6256 14.7006C13.8146 15.0334 13.7396 16.1397 14.4896 16.5944C15.8912 17.4475 17.6349 19.0741 18.0849 22.0413C18.099 22.1397 18.1271 22.2288 18.1552 22.3178C18.3521 21.5491 18.624 20.9491 19.0131 20.71C20.1709 19.9975 21.1599 17.4616 30.5771 17.3163C39.9943 17.4663 40.9834 19.9975 42.1412 20.71C42.5302 20.9491 42.8021 21.5491 42.999 22.3178C43.0271 22.2288 43.0552 22.1397 43.0693 22.0413C43.5193 19.0788 45.2631 17.4475 46.6646 16.5944C47.4193 16.1397 47.349 15.0334 46.5381 14.7006Z" fill="#912221"/>
<path d="M56.6161 22.313C55.6552 19.9646 54.8349 18.9849 52.1067 17.9068C51.1224 17.5177 50.5317 16.7958 50.7755 16.1958C51.0192 15.5958 51.6567 15.3849 52.6739 15.6521C55.5286 16.3927 57.7036 19.0693 57.7083 22.2099C57.7036 23.6724 56.9911 23.2271 56.6161 22.313ZM5.46144 17.6068C5.63957 18.2021 6.80207 17.7052 8.21301 17.5927C10.1677 17.438 10.7443 18.0474 11.6114 18.9568C12.338 19.7208 13.3786 19.7349 13.763 19.2146C14.1521 18.6943 13.9224 18.1177 13.2521 17.3068C12.7552 16.7021 10.613 15.263 7.44894 16.1162C6.73176 16.3177 5.27394 16.9787 5.46144 17.6068Z" fill="#F44336"/>
<path d="M9.43652 45.3989V55.3786C9.43652 57.2161 11.0209 58.7067 12.9709 58.7067H48.1928C50.1428 58.7067 51.7271 57.2161 51.7271 55.3786V45.1692L9.43652 45.3989Z" fill="#C62828"/>
<path d="M51.6239 43.7208C51.6239 43.7208 47.963 26.6958 47.3724 23.6865C46.7818 20.6771 45.7552 19.7912 44.0208 19.763C42.8536 19.7443 41.6208 18.9427 41.4146 17.5037C41.2083 16.0833 41.1614 15.249 41.0771 14.6209C40.9927 13.9927 41.0161 13.074 40.1161 13.074H38.3302C37.5333 13.074 37.4677 13.2287 37.3364 14.3537C37.2052 15.4833 37.0271 17.6583 36.5864 18.7458C36.2068 19.6787 35.2036 19.763 34.6318 19.763H26.5271C25.9599 19.763 24.9521 19.6787 24.5724 18.7458C24.1318 17.6583 23.9489 15.4787 23.8224 14.3537C23.6911 13.224 23.6255 13.074 22.8286 13.074H21.0427C20.1474 13.074 20.1708 13.9927 20.0818 14.6209C19.9974 15.249 19.9505 16.0833 19.7443 17.5037C19.5333 18.9427 18.3052 19.7443 17.138 19.763C15.4036 19.7912 14.3771 20.6771 13.7864 23.6865C13.1958 26.6958 9.53488 43.7208 9.53488 43.7208C9.04269 47.0349 10.1911 48.4224 16.1349 48.4224H45.0193C50.9724 48.4224 52.1208 47.0349 51.6239 43.7208Z" fill="#FF4638"/>
<path d="M42.0661 28.1538L40.3224 25.3084L36.4599 24.6428L35.0536 25.4819C34.7255 25.6788 34.3177 25.6647 33.999 25.4584L33.2724 24.9803L27.924 25.0225L27.3661 25.4256C27.0427 25.66 26.6068 25.6741 26.2693 25.4678L24.9849 24.6803L19.0974 28.1538L17.0021 40.1069L17.1005 42.2678C17.1193 42.7084 17.4849 43.0553 17.9255 43.0553H43.2427C43.6833 43.0553 44.0489 42.7084 44.0677 42.2678L44.1661 40.1069L42.0661 28.1538Z" fill="#4E342E"/>
<path d="M37.4443 34.5473H42.2771C42.7318 34.5473 43.0787 34.1348 42.999 33.6895L42.5537 31.1348C42.4927 30.7833 42.188 30.5301 41.8318 30.5301H37.1443C36.7037 30.5301 36.3662 30.9145 36.4177 31.3504L36.7224 33.9051C36.7599 34.2708 37.074 34.5473 37.4443 34.5473ZM28.4209 28.8942H32.8037C33.2209 28.8942 33.5584 28.5426 33.5349 28.1254L33.3896 25.3364C33.38 25.149 33.2987 24.9725 33.1626 24.8434C33.0265 24.7143 32.846 24.6424 32.6584 24.6426H28.5662C28.1771 24.6426 27.8537 24.9473 27.8349 25.3364L27.6896 28.1254C27.6662 28.5426 28.0037 28.8942 28.4209 28.8942ZM33.2771 36.6614H27.9474C27.5584 36.6614 27.2349 36.9661 27.2162 37.3551L27.0849 39.9098C27.0615 40.327 27.399 40.6786 27.8162 40.6786H33.4084C33.8255 40.6786 34.163 40.327 34.1396 39.9098L34.0084 37.3551C33.9987 37.1678 33.9175 36.9913 33.7814 36.8621C33.6453 36.733 33.4647 36.6611 33.2771 36.6614ZM28.1396 34.5473H33.0802C33.4974 34.5473 33.8349 34.1958 33.8115 33.7786L33.6802 31.2239C33.6706 31.0365 33.5893 30.86 33.4532 30.7309C33.3171 30.6018 33.1366 30.5299 32.949 30.5301H28.2709C27.8818 30.5301 27.5584 30.8348 27.5396 31.2239L27.4084 33.7786C27.3896 34.1958 27.7224 34.5473 28.1396 34.5473ZM23.3209 36.6614H18.2209C17.8646 36.6614 17.5599 36.9192 17.499 37.2661L17.0537 39.8208C16.974 40.2708 17.3209 40.6786 17.7756 40.6786H23.0209C23.3912 40.6786 23.7052 40.402 23.7474 40.0317L24.0521 37.477C24.099 37.0458 23.7615 36.6614 23.3209 36.6614ZM18.8865 34.5473H23.7756C24.1459 34.5473 24.4599 34.2708 24.5021 33.9004L24.8068 31.3458C24.8584 30.9098 24.5209 30.5254 24.0802 30.5254H19.3365C18.9802 30.5254 18.6756 30.7833 18.6146 31.1301L18.1693 33.6848C18.0849 34.1348 18.4318 34.5473 18.8865 34.5473ZM36.7974 28.8942H41.3255C41.7802 28.8942 42.1271 28.4817 42.0474 28.0364L41.5599 25.2473C41.499 24.8958 41.1943 24.6426 40.838 24.6426H36.4646C36.024 24.6426 35.6865 25.027 35.738 25.4629L36.0709 28.252C36.113 28.6176 36.4271 28.8942 36.7974 28.8942ZM25.1537 28.2473L25.4865 25.4583C25.5381 25.0223 25.2006 24.6379 24.7599 24.6379H20.3256C19.9693 24.6379 19.6646 24.8958 19.6037 25.2426L19.1162 28.0317C19.0365 28.4817 19.3834 28.8895 19.8381 28.8895H24.4271C24.7974 28.8942 25.1115 28.6176 25.1537 28.2473ZM37.1724 37.4817L37.4771 40.0364C37.5193 40.4067 37.8334 40.6833 38.2037 40.6833H43.388C43.8427 40.6833 44.1896 40.2708 44.1099 39.8254L43.6646 37.2708C43.6037 36.9192 43.299 36.6661 42.9427 36.6661H37.899C37.463 36.6614 37.1209 37.0458 37.1724 37.4817Z" fill="#F5F5F5"/>
</svg>
