<svg width="60" height="60" viewBox="0 0 60 60" fill="none" xmlns="http://www.w3.org/2000/svg">
<path d="M29.9766 1.90324C13.3266 1.66887 0.960941 15.9282 1.79063 31.1767C2.77032 49.1345 15.6094 58.1579 30.6281 58.0548C46.4062 57.947 58.3781 46.7626 58.05 29.8689C57.7266 13.0032 45.3234 2.12355 29.9766 1.90324Z" fill="#C8C8C8"/>
<path d="M16.8094 7.12957C5.15629 13.8093 -2.24058 32.7421 10.1719 47.0671C11.6907 48.8202 14.1047 50.0436 15.9375 50.878C28.4532 56.5358 43.5985 47.8358 49.4579 41.203C54.1079 35.9389 55.8188 32.4468 55.2657 25.2608C54.8391 19.6733 52.4485 14.278 47.4938 10.2889C36.2907 1.25144 24.211 2.88269 16.8094 7.12957Z" fill="white"/>
<path d="M28.5469 18.6515C28.5047 18.628 24.1687 16.139 20.8031 14.8921C17.2969 13.5936 14.7094 12.8952 14.6812 12.8905L15.164 11.0811C15.2718 11.1093 17.8594 11.803 21.4547 13.139C24.9703 14.4421 29.3015 16.9265 29.4844 17.0343L28.5469 18.6515ZM36.172 13.7596L38.7234 4.65552L40.529 5.1613L37.9781 14.2654L36.172 13.7596ZM55.125 25.5561C55.1015 25.5468 52.6078 24.5999 49.8234 23.8452C47.7281 23.278 45.0281 22.7015 45 22.6968L45.389 20.864C45.5015 20.8874 48.164 21.4546 50.3109 22.0358C53.1937 22.814 55.6875 23.7655 55.7953 23.803L55.125 25.5561ZM40.3734 43.9499C40.3734 43.9218 40.139 41.0624 39.5765 38.1374C39.0187 35.2499 37.9547 32.5311 37.9453 32.5077L39.689 31.8186C39.7359 31.9358 40.8281 34.7202 41.4187 37.7858C42 40.8186 42.2343 43.6827 42.2437 43.8046L40.3734 43.9499ZM49.6968 46.5561L48.4593 45.1452C48.4781 45.1311 50.2781 43.5374 52.5 40.5374C54.5531 37.7624 55.5 35.3343 55.5093 35.3061L57.2578 35.9765C57.2156 36.0843 56.2078 38.6718 54.0047 41.6483C51.6562 44.8265 49.7765 46.4858 49.6968 46.5561ZM15.397 36.9749L26.2453 27.2919L27.494 28.6907L16.6453 38.3736L15.397 36.9749ZM6.05154 34.3827C6.02341 34.1999 5.40466 29.864 5.40466 25.8983C5.40466 21.9421 5.85466 18.2811 5.8781 18.1265L7.73904 18.3608C7.73435 18.3983 7.28435 22.064 7.28435 25.8983C7.28435 29.7233 7.90779 34.0733 7.91248 34.1155L6.05154 34.3827ZM33.4219 53.2733C33.3047 53.2593 30.4453 52.8983 25.5 51.4452C22.35 50.5171 18.75 48.614 18.5953 48.5343L19.4765 46.8796C19.514 46.8983 23.0625 48.778 26.0297 49.6499C30.8109 51.0561 33.6234 51.4124 33.6515 51.4171L33.4219 53.2733Z" fill="#171717"/>
<path d="M25.0172 15.3376C24.8719 15.7032 25.0641 28.7579 25.3594 29.147C25.6547 29.536 38.7797 33.9938 39.3657 33.8485C39.9516 33.7032 46.9547 22.6829 46.9547 22.2423C46.9547 21.8017 38.3391 11.1751 37.8985 11.0767C37.4578 10.9782 25.2141 14.8454 25.0172 15.3376ZM55.0125 16.9407C55.0125 16.9407 53.0813 23.3673 53.0813 23.8595C53.0813 24.347 54.2578 27.0423 54.7969 30.3704C55.336 33.6985 54.5532 38.6954 54.8953 38.8923C55.2375 39.0892 56.9344 38.9907 56.9344 38.9907C56.9344 38.9907 58.5703 33.8485 57.8813 27.2392C57.1922 20.6251 55.0125 16.9407 55.0125 16.9407ZM41.0813 42.5157C40.6875 42.5532 30.3563 51.4267 30.4032 51.6751C30.45 51.9188 34.4485 57.811 34.4485 57.811C34.4485 57.811 39.4735 57.4126 44.0766 54.9188C48.6797 52.4251 50.4282 50.2079 50.4282 50.2079C50.4282 50.2079 51.0657 44.2829 50.8219 44.236C50.5828 44.1798 41.5735 42.4688 41.0813 42.5157ZM6.60471 31.4485C6.33752 31.6688 4.79065 35.072 4.35002 36.9845C3.9094 38.8923 3.66565 40.7063 3.66565 40.7063C3.66565 40.7063 4.84221 44.1095 6.60471 46.6313C8.78909 49.7532 11.6297 51.9563 11.6297 51.9563C11.6297 51.9563 20.9016 49.1298 20.9532 48.736C21.0047 48.3423 19.875 44.9157 19.0922 42.0751C18.3094 39.2345 18.1641 36.0517 17.8688 35.8548C17.5735 35.6579 14.5875 34.7298 12.2391 33.797C9.89065 32.8642 6.90002 31.2048 6.60471 31.4485ZM3.69846 19.6313C3.69846 19.6313 6.26252 21.8485 6.65627 21.8485C7.05002 21.8485 9.5344 18.5579 12.0422 16.561C15.4219 13.8657 17.086 12.9845 17.1375 12.6423C17.1844 12.3001 18.6563 4.12041 18.6563 4.12041C18.6563 4.12041 13.2188 6.17822 9.25315 10.7298C5.28752 15.2813 3.69846 19.6313 3.69846 19.6313ZM31.4297 1.93604C31.4297 1.93604 34.5563 3.54385 35.6953 4.33604C36.8344 5.12822 38.5125 6.80635 39.0094 6.85791C39.5016 6.90947 46.3032 6.91416 46.3032 6.91416C46.3032 6.91416 43.2188 4.80479 39.8016 3.59541C35.6907 2.1376 31.4297 1.93604 31.4297 1.93604Z" fill="#474C4F"/>
</svg>
