<svg width="60" height="60" viewBox="0 0 60 60" fill="none" xmlns="http://www.w3.org/2000/svg">
<path d="M13.7343 49.575C13.7343 49.575 13.5608 50.0953 13.5561 50.5031C13.5514 50.9109 13.6124 51.7406 14.3436 51.7406C15.2905 51.7406 25.9968 51.7078 31.1577 51.7406C36.3186 51.7734 45.8202 51.675 46.4858 51.6375C47.1515 51.6046 46.9686 50.1281 46.9265 49.6218L13.7343 49.575Z" fill="#543529"/>
<path d="M47.9203 54.3843L49.275 55.3171C49.275 55.3171 50.1516 56.0812 50.2688 56.5405C50.3859 56.9999 50.1141 57.8718 49.725 58.0546L29.4094 58.1249L10.4625 58.0687C10.1672 57.9937 9.81094 57.7077 9.72188 57.1827C9.63282 56.6577 9.92344 56.0718 10.1063 55.7062C10.2891 55.3405 14.0578 54.389 14.0578 54.389L47.9203 54.3843Z" fill="#874D36"/>
<path d="M12.1359 53.4094C11.7703 53.414 11.5031 53.85 11.2828 54.1359C10.7109 54.8719 10.35 55.3359 10.1109 55.7062C9.78278 56.2172 10.439 56.6578 11.025 56.6578C11.6109 56.6578 50.114 56.714 50.2078 56.4656C50.3344 56.1375 49.5844 55.0172 48.9656 53.9859C48.75 53.625 48.2812 53.1328 47.8594 53.1375L12.1359 53.4094Z" fill="#B88956"/>
<path d="M15.1032 47.2593L13.8001 49.3828C13.5751 49.7484 13.8376 50.2171 14.2689 50.2171L46.3876 50.1984C46.8142 50.1984 47.0767 49.7343 46.861 49.3687L45.6001 47.2546H15.1032V47.2593Z" fill="#A06841"/>
<path d="M22.1485 47.6016L18.3282 58.0969H16.0126L14.686 55.5703L18.9235 46.4532C18.9235 46.4485 22.3595 46.9219 22.1485 47.6016Z" fill="#88857C"/>
<path d="M13.5046 58.1109C13.5609 57.9141 17.4656 49.7016 17.4656 49.7016C17.7093 49.1906 19.7671 49.4203 19.4343 50.3859C19.1015 51.3516 16.7437 58.0922 16.7437 58.0922L13.5046 58.1109Z" fill="#C8C9C6"/>
<path d="M37.4954 47.6016L41.3345 58.0828L43.6267 58.0782L44.9579 55.5703L40.7204 46.4532C40.7251 46.4485 37.2845 46.9219 37.4954 47.6016Z" fill="#88857C"/>
<path d="M46.1343 58.0688C46.0781 57.8719 42.164 49.6735 42.164 49.6735C41.9203 49.1626 39.8624 49.3922 40.1953 50.3579L42.8953 58.0782L46.1343 58.0688Z" fill="#C8C9C6"/>
<path d="M46.9688 45.975C47.0344 46.7766 46.5469 47.4937 45.8625 47.6062C43.5891 47.9672 38.1563 48.6563 29.6719 48.6563C21.2485 48.6563 15.9375 47.9766 13.6922 47.6109C12.9985 47.4984 12.5157 46.7672 12.5907 45.9563L12.5813 37.9219H46.9782L46.9688 45.975Z" fill="#82AEC0"/>
<path d="M12.5813 37.9219V40.7625C12.5813 40.7625 20.7282 41.1844 29.775 41.1844C38.8219 41.1844 46.9735 40.6969 46.9735 40.6969V37.9219H12.5813Z" fill="#546E7A"/>
<path d="M29.7093 39.7454L29.775 28.472L12.1031 25.1157L11.7937 36.0938V38.7142C11.7937 39.1313 12.1171 39.4735 12.5296 39.497C14.0156 39.586 18.2718 39.7454 29.7093 39.7454Z" fill="#E0E0E0"/>
<path d="M45.3562 3.75469C43.0874 2.83125 38.5593 1.875 29.7796 1.875C20.9999 1.875 16.4671 2.83125 14.1983 3.75469C13.2655 4.13438 12.6562 5.60625 12.6562 6.62813L12.103 25.1109L17.039 32.4281L29.653 38.5266C45.3937 38.5266 47.8546 38.3906 47.8546 38.3906L46.8937 6.62813C46.8983 5.60625 46.289 4.13438 45.3562 3.75469Z" fill="#2167A1"/>
<path d="M44.2922 4.41567C42.1688 3.55317 37.9922 2.69067 29.7797 2.69067C21.5672 2.69067 17.386 3.55317 15.2672 4.41567C14.3954 4.77192 13.8235 5.83599 13.8235 6.79224L13.8985 18.225C13.9125 20.7657 15.5719 23.0063 17.9954 23.7704L30.1172 27.8719L41.7516 23.8079C44.1797 23.0251 45.8204 20.7563 45.8063 18.2063L45.7313 6.83911C45.7313 5.88286 45.1641 4.77192 44.2922 4.41567Z" fill="#2686C6"/>
<path d="M43.8328 14.7562H31.0547L31.2234 6.94214H42.8813L43.8328 14.7562Z" fill="#BAE2FD"/>
<path d="M42.9563 6.07031H31.4344C31.0032 6.07031 30.661 6.53437 30.6891 7.08281L30.9047 14.6719C30.9282 15.1734 31.2563 15.5625 31.6501 15.5625H43.5329C44.1047 15.5625 44.5266 14.8875 44.4047 14.175L43.6782 6.81563C43.6079 6.37969 43.3032 6.07031 42.9563 6.07031ZM32.4516 7.36875H42.0376C42.3797 7.36875 42.6751 7.66406 42.7594 8.08594L43.2047 13.0734C43.3266 13.6781 42.9704 14.2641 42.4829 14.2641H32.5782C32.1891 14.2641 31.8657 13.8797 31.8376 13.3828L31.7157 8.39531C31.6782 7.84219 32.0204 7.36875 32.4516 7.36875Z" fill="#37474F"/>
<path d="M16.1672 14.7562H28.9454L28.7766 6.94214H17.1188L16.1672 14.7562Z" fill="#BAE2FD"/>
<path d="M16.3172 6.81563L15.5907 14.175C15.4688 14.8875 15.8907 15.5625 16.4625 15.5625H28.3453C28.7391 15.5625 29.0625 15.1734 29.0907 14.6719L29.3063 7.08281C29.3344 6.53437 28.9922 6.07031 28.561 6.07031H17.0438C16.6969 6.07031 16.3922 6.37969 16.3172 6.81563ZM28.2891 8.39531L28.1672 13.3828C28.1391 13.8797 27.8157 14.2641 27.4266 14.2641H17.5125C17.025 14.2641 16.6688 13.6781 16.7907 13.0734L17.236 8.08594C17.3203 7.66406 17.6157 7.36875 17.9578 7.36875H27.5438C27.9797 7.36875 28.3219 7.84219 28.2891 8.39531Z" fill="#37474F"/>
<path d="M39.3796 20.5734C38.8405 19.3687 37.9171 18.914 36.9468 19.1531C35.9765 19.3921 35.4749 20.3484 35.6202 21.3374C35.8124 22.6827 37.0546 24.0093 38.6296 23.2687C39.6515 22.7906 39.914 21.764 39.3796 20.5734Z" fill="#01579B"/>
<path d="M37.3734 22.3733C38.1837 22.3733 38.8406 21.7165 38.8406 20.9062C38.8406 20.0958 38.1837 19.439 37.3734 19.439C36.5631 19.439 35.9062 20.0958 35.9062 20.9062C35.9062 21.7165 36.5631 22.3733 37.3734 22.3733Z" fill="#F44336"/>
<path d="M20.6203 20.5734C21.1594 19.3687 22.0828 18.914 23.0531 19.1531C24.0234 19.3921 24.525 20.3484 24.3797 21.3374C24.1875 22.6827 22.9453 24.0093 21.3703 23.2687C20.3484 22.7906 20.0859 21.764 20.6203 20.5734Z" fill="#01579B"/>
<path d="M22.6266 22.3733C23.4369 22.3733 24.0938 21.7165 24.0938 20.9062C24.0938 20.0958 23.4369 19.439 22.6266 19.439C21.8163 19.439 21.1594 20.0958 21.1594 20.9062C21.1594 21.7165 21.8163 22.3733 22.6266 22.3733Z" fill="#F44336"/>
<path d="M29.7796 28.4671L12.1078 25.1108L11.7937 36.0937V38.714C11.7937 39.1312 12.1171 39.4733 12.5296 39.4968C14.0156 39.5858 18.2718 39.7452 29.7093 39.7452H29.775C29.775 39.7452 30.7828 37.7015 30.7828 34.2608C30.7828 30.8202 29.7796 28.4671 29.7796 28.4671Z" fill="#E0E0E0"/>
<path d="M29.7798 28.4671L47.4517 25.1108L47.761 36.0937V38.714C47.761 39.1312 47.4376 39.4733 47.0251 39.4968C45.5392 39.5858 41.2829 39.7452 29.8454 39.7452H29.7798V28.4671Z" fill="#BDBDBD"/>
<path opacity="0.2" d="M11.7937 38.7141C11.7937 39.1312 12.1171 39.4734 12.5296 39.4969C14.0156 39.5859 18.2718 39.7453 29.7093 39.7453H29.8406C41.2781 39.7453 45.5343 39.5859 47.0203 39.4969C47.4328 39.4734 47.7562 39.1312 47.7562 38.7141V36.1172H11.7937V38.7141Z" fill="#424242"/>
<path d="M14.8595 42.0703C14.7066 42.0552 14.5523 42.0723 14.4066 42.1206C14.2608 42.169 14.1268 42.2474 14.0132 42.3508C13.8996 42.4542 13.809 42.5803 13.7473 42.7209C13.6856 42.8615 13.6541 43.0135 13.6548 43.1671C13.6548 44.6296 13.6782 46.2234 14.6907 46.5374C15.8064 46.8843 22.0642 47.2312 25.036 47.3249C25.6829 47.3437 26.2032 46.8046 26.1657 46.1624L26.0251 43.7718C26.0087 43.496 25.8893 43.2364 25.6904 43.0445C25.4916 42.8526 25.2279 42.7424 24.9517 42.7359C21.2626 42.6749 16.9314 42.2812 14.8595 42.0703Z" fill="#94D1E0"/>
<path d="M40.2001 33.8016C41.7223 33.8016 42.9563 32.5675 42.9563 31.0453C42.9563 29.5231 41.7223 28.2891 40.2001 28.2891C38.6779 28.2891 37.4438 29.5231 37.4438 31.0453C37.4438 32.5675 38.6779 33.8016 40.2001 33.8016Z" fill="#757575"/>
<path d="M40.2 33.3469C41.3184 33.3469 42.225 32.4403 42.225 31.3219C42.225 30.2035 41.3184 29.2969 40.2 29.2969C39.0817 29.2969 38.175 30.2035 38.175 31.3219C38.175 32.4403 39.0817 33.3469 40.2 33.3469Z" fill="#FFFDE7"/>
<path d="M19.8 33.8016C21.3222 33.8016 22.5562 32.5675 22.5562 31.0453C22.5562 29.5231 21.3222 28.2891 19.8 28.2891C18.2777 28.2891 17.0437 29.5231 17.0437 31.0453C17.0437 32.5675 18.2777 33.8016 19.8 33.8016Z" fill="#9E9E9E"/>
<path d="M19.7999 33.3469C20.9183 33.3469 21.8249 32.4403 21.8249 31.3219C21.8249 30.2035 20.9183 29.2969 19.7999 29.2969C18.6815 29.2969 17.7749 30.2035 17.7749 31.3219C17.7749 32.4403 18.6815 33.3469 19.7999 33.3469Z" fill="#FFFDE7"/>
<path d="M26.9765 14.2593H23.5405L19.0874 7.36865H22.528L26.9765 14.2593ZM40.9124 14.2593H37.4718L33.0233 7.36865H36.4593L40.9124 14.2593Z" fill="white"/>
</svg>
