<svg width="100" height="100" viewBox="0 0 100 100" fill="none" xmlns="http://www.w3.org/2000/svg">
<path d="M72.8905 46.875C73.0468 47.1094 73.4374 46.9531 73.4374 46.7187C73.9062 42.5 75.1562 30.8594 83.4374 28.3594C86.0937 27.5781 88.7499 29.4531 89.0624 31.875C89.6093 35.7812 85.1562 45.8594 85.5468 55.0781C85.6249 56.5625 88.1249 72.2656 81.4843 81.5625C74.8437 90.8594 59.0624 100.312 43.3593 85.9375C35.2343 78.5156 35.2343 75.5469 25.1562 65.1562C23.1249 63.125 14.9999 54.2187 12.8124 51.4844C9.9218 47.8125 14.5312 42.9687 18.0468 45.4687C19.6874 46.6406 34.2187 58.8281 34.7655 59.375C35.8593 60.3125 37.1874 58.9844 36.4062 58.0469C27.4999 46.3281 18.9062 35.7812 16.5624 31.7187C14.2187 27.6562 19.8437 23.2812 23.1249 26.7969C25.3905 29.1406 42.1874 48.75 42.9687 49.6094C43.7499 50.4687 45.078 49.375 44.6093 48.2812C44.0624 47.2656 30.4687 23.5937 28.0468 18.2031C25.9374 13.4375 32.9687 8.98436 36.2499 13.9062C38.9062 17.8125 53.7499 42.5 54.2968 43.3594C54.9999 44.6094 56.5624 43.8281 55.9374 42.4219C55.4687 41.4062 46.3281 16.4062 45.6249 13.8281C44.3749 9.29686 50.8593 5.54686 53.9062 10.7031C58.0468 17.8125 66.2499 39.5312 72.8905 46.875Z" fill="#E0BB95"/>
<mask id="mask0_26_230" style="mask-type:luminance" maskUnits="userSpaceOnUse" x="11" y="8" width="79" height="86">
<path d="M72.8905 46.875C73.0468 47.1094 73.4374 46.9531 73.4374 46.7187C73.9062 42.5 75.1562 30.8594 83.4374 28.3594C86.0937 27.5781 88.7499 29.4531 89.0624 31.875C89.6093 35.7812 85.1562 45.8594 85.5468 55.0781C85.6249 56.5625 88.1249 72.2656 81.4843 81.5625C74.8437 90.8594 59.0624 100.312 43.3593 85.9375C35.2343 78.5156 35.2343 75.5469 25.1562 65.1562C23.1249 63.125 14.9999 54.2187 12.8124 51.4844C9.9218 47.8125 14.5312 42.9687 18.0468 45.4687C19.6874 46.6406 34.2187 58.8281 34.7655 59.375C35.8593 60.3125 37.1874 58.9844 36.4062 58.0469C27.4999 46.3281 18.9062 35.7812 16.5624 31.7187C14.2187 27.6562 19.8437 23.2812 23.1249 26.7969C25.3905 29.1406 42.1874 48.75 42.9687 49.6094C43.7499 50.4687 45.078 49.375 44.6093 48.2812C44.0624 47.2656 30.4687 23.5937 28.0468 18.2031C25.9374 13.4375 32.9687 8.98436 36.2499 13.9062C38.9062 17.8125 53.7499 42.5 54.2968 43.3594C54.9999 44.6094 56.5624 43.8281 55.9374 42.4219C55.4687 41.4062 46.3281 16.4062 45.6249 13.8281C44.3749 9.29686 50.8593 5.54686 53.9062 10.7031C58.0468 17.8125 66.2499 39.5312 72.8905 46.875Z" fill="white"/>
</mask>
<g mask="url(#mask0_26_230)">
<path d="M71.25 47.0312C61.5625 54.9218 57.2656 66.1718 65.2344 77.8906C65.9375 78.9062 67.4219 77.9687 66.7969 76.7969C63.5156 70.9375 61.0937 60.3906 72.4219 49.375C73.75 50 75.3125 48.6718 75.3906 47.5C76.25 40.1562 77.1094 34.0625 82.5781 30.625C84.6875 29.2968 87.4219 30.2343 87.5781 33.4375C87.5781 33.4375 89.2969 33.5937 90 33.6718C90.3906 32.0312 91.1719 29.0625 91.1719 28.9843C91.1719 28.9062 81.9531 25.4687 81.9531 25.4687L73.9062 33.4375L71.25 47.0312ZM55.625 43.8281C56.7187 43.2812 57.6562 42.4218 57.1875 41.25C56.7187 40 48.0469 16.4062 47.5 14.6093C46.4062 11.3281 49.1406 8.74997 51.5625 9.84372C52.8906 10.4687 53.5156 8.35935 52.8125 8.04685C52.1094 7.73435 50.4687 6.24997 47.1875 7.8906C41.3281 10.8593 44.7656 17.4218 46.3281 21.25C47.8906 25.0781 55.625 43.8281 55.625 43.8281ZM44.2969 49.6875C45.625 48.75 46.6406 47.9687 45.4687 46.0937C44.6875 44.8437 31.4844 20.8593 30.1562 18.5156C28.2031 15.1562 32.2656 12.1875 34.5312 14.2968C35.5469 15.2343 37.1094 13.2031 36.3281 12.4218C35.5469 11.6406 32.8125 9.37497 29.375 11.6406C25.9375 13.9062 25.8594 16.6406 26.3281 17.8125C26.7187 18.9843 44.2969 49.6875 44.2969 49.6875ZM36.4844 59.2969C37.4219 57.8906 38.0469 57.1875 36.7187 55.3906C35.3906 53.5937 19.6094 32.9687 18.75 31.7968C16.5625 28.9062 19.7656 26.4062 21.3281 27.2656C22.8125 28.125 23.6719 25.7031 22.4219 25.0781C21.1719 24.4531 19.1406 23.75 17.2656 25.0781C15.3906 26.4062 14.2969 29.1406 14.6094 30.7031C14.8437 32.2656 36.4844 59.2969 36.4844 59.2969Z" fill="#D19661"/>
<path d="M72.5 88.75C59.8437 94.7656 50.3906 90.0781 44.2968 84.1406C37.3437 77.3437 34.0625 71.0937 29.4531 66.875C27.8906 65.3906 15.5468 52.2656 14.0625 50C12.8906 48.125 15.2343 44.9219 17.8125 46.7187C19.4531 47.8125 20.2343 45.4687 19.1406 44.8437C18.0468 44.2187 15.625 42.8906 13.0468 44.8437C10.4687 46.7187 10.3906 50.0781 11.0156 51.1719C11.6406 52.2656 49.6093 95.8593 49.6093 95.8593L65.0781 95.4687L73.3593 90.3906L72.5 88.75Z" fill="#D19661"/>
</g>
<mask id="mask1_26_230" style="mask-type:luminance" maskUnits="userSpaceOnUse" x="11" y="8" width="79" height="86">
<path d="M72.8905 46.875C73.0468 47.1094 73.4374 46.9531 73.4374 46.7187C73.9062 42.5 75.1562 30.8594 83.4374 28.3594C86.0937 27.5781 88.7499 29.4531 89.0624 31.875C89.6093 35.7812 85.1562 45.8594 85.5468 55.0781C85.6249 56.5625 88.1249 72.2656 81.4843 81.5625C74.8437 90.8594 59.0624 100.312 43.3593 85.9375C35.2343 78.5156 35.2343 75.5469 25.1562 65.1562C23.1249 63.125 14.9999 54.2187 12.8124 51.4844C9.9218 47.8125 14.5312 42.9687 18.0468 45.4687C19.6874 46.6406 34.2187 58.8281 34.7655 59.375C35.8593 60.3125 37.1874 58.9844 36.4062 58.0469C27.4999 46.3281 18.9062 35.7812 16.5624 31.7187C14.2187 27.6562 19.8437 23.2812 23.1249 26.7969C25.3905 29.1406 42.1874 48.75 42.9687 49.6094C43.7499 50.4687 45.078 49.375 44.6093 48.2812C44.0624 47.2656 30.4687 23.5937 28.0468 18.2031C25.9374 13.4375 32.9687 8.98436 36.2499 13.9062C38.9062 17.8125 53.7499 42.5 54.2968 43.3594C54.9999 44.6094 56.5624 43.8281 55.9374 42.4219C55.4687 41.4062 46.3281 16.4062 45.6249 13.8281C44.3749 9.29686 50.8593 5.54686 53.9062 10.7031C58.0468 17.8125 66.2499 39.5312 72.8905 46.875Z" fill="white"/>
</mask>
<g mask="url(#mask1_26_230)">
<path d="M87.1094 28.125C87.5 29.1406 87.9687 30.9375 87.5 33.3594C85.7031 42.4219 82.7344 47.7344 83.6719 57.5C85.3906 76.25 78.8281 90.4688 56.25 93.2812C53.9844 93.5938 54.6094 95.3125 55.7812 95.1563C56.3281 95.0781 72.4219 92.1875 72.4219 92.1875C72.4219 92.1875 87.3437 79.4531 87.3437 79.2969C87.3437 79.1406 91.0937 30.5469 91.0937 30.5469L87.1094 28.125ZM48.0469 8.20313C49.0625 8.35938 51.25 9.21875 52.8125 12.2656C54.375 15.3125 62.0312 32.8906 63.0469 34.7656C64.0625 36.6406 68.2031 45.9375 71.5625 48.75C72.6562 49.6094 73.2031 48.125 73.2031 48.125L73.2812 45.7031L55.1562 4.45312L49.1406 4.6875L48.0469 8.20313ZM55.625 43.8281C54.1406 44.5312 53.0469 45.1562 51.9531 43.4375C51.25 42.1875 43.6719 29.2188 34.1406 14.0625C33.3594 12.8906 31.5625 11.875 30.1562 12.4219C28.75 13.0469 28.4375 11.25 29.1406 10.8594C29.8437 10.4688 34.2187 8.04688 37.1875 13.0469C40.1562 18.0469 55.625 43.8281 55.625 43.8281ZM44.2969 49.6875C43.125 50.5469 41.9531 51.6406 40.4687 49.8438C39.0625 48.125 23.0469 29.0625 22.1094 27.8906C21.1719 26.7188 19.2187 25.7031 17.7344 26.6406C16.7187 27.2656 15.7812 25.3906 16.4062 24.9219C17.0312 24.4531 20.5469 21.3281 22.8906 23.9844C25.2344 26.6406 44.2969 49.6875 44.2969 49.6875ZM36.4844 59.2969C35.4687 60.3906 34.375 61.0156 32.8906 59.9219C31.4062 58.8281 18.125 47.6562 17.2656 46.875C16.4062 46.0938 13.9062 44.9219 12.0312 46.7969C11.3281 47.5 10.0781 46.3281 10.7812 45.625C11.4844 44.8438 15.3125 40.9375 18.3594 43.5156C21.4062 46.0938 36.4844 59.2969 36.4844 59.2969Z" fill="#8D542E"/>
</g>
<path d="M8.28118 63.5156C10.7031 70.7031 14.3749 75.1563 20.3906 79.2188C21.4843 80 20.8593 81.5625 19.6093 81.0156C13.9843 78.75 7.73431 73.75 6.24993 63.8281C6.01556 62.5 7.89056 62.2656 8.28118 63.5156ZM12.9687 59.2188C15.3906 66.4063 19.0624 70.8594 25.0781 74.9219C26.1718 75.7031 25.5468 77.2656 24.2968 76.7188C18.6718 74.4531 12.4218 69.4531 10.9374 59.5313C10.7812 58.2031 12.5781 57.9688 12.9687 59.2188ZM73.0468 27.0313C71.1718 19.6875 67.7343 15 62.0312 10.625C60.9374 9.84376 61.7187 8.28126 62.9687 8.82814C68.4374 11.4063 74.3749 16.875 75.1562 26.875C75.2343 28.2031 73.3593 28.3594 73.0468 27.0313ZM78.1249 23.2813C76.2499 15.9375 72.8124 11.25 67.1093 6.87501C66.0156 6.09376 66.7968 4.53126 68.0468 5.07814C73.5156 7.65626 79.4531 13.125 80.2343 23.125C80.3124 24.375 78.5156 24.5313 78.1249 23.2813Z" fill="#B0BEC5"/>
</svg>
